<?xml version="1.0" encoding="utf-8"?>
<!-- Generator: Adobe Illustrator 24.0.3, SVG Export Plug-In . SVG Version: 6.00 Build 0)  -->
<svg version="1.1" xmlns="http://www.w3.org/2000/svg" xmlns:xlink="http://www.w3.org/1999/xlink" x="0px" y="0px"
	 viewBox="0 0 621 92" style="enable-background:new 0 0 621 92;" xml:space="preserve">
<style type="text/css">
	.st0{fill:#FFFFFF;}
</style>
<g id="レイヤー_1">
	<path class="st0" d="M127.6,30.8l-3.7,9.2c-0.6,1.4-0.9,2.6-0.9,3.5c0,1.3,0.6,2.2,1.7,2.7h-8.3c0.4,0,0.9-0.4,1.7-1.2
		c0.7-0.8,1.6-2.3,2.6-4.6l15.1-36l15,36.2c0.9,2.1,1.7,3.5,2.5,4.3s1.4,1.2,1.9,1.3h-9.6c1-0.5,1.5-1.2,1.5-2.1
		c0-0.8-0.3-2-0.9-3.5l-4.1-9.9L127.6,30.8L127.6,30.8z M141.1,28.4l-6.3-15.5l-6.2,15.5H141.1z"/>
	<path class="st0" d="M163.3,46.4c-1.2-0.4-2.3-0.9-3.1-1.5v-5.1c0.7,1.8,1.7,3.1,3,3.9c1.3,0.8,2.6,1.2,4.1,1.2
		c1.2,0,2.2-0.3,2.9-1c0.8-0.7,1.1-1.4,1.1-2.1c0-0.9-0.4-1.6-1.2-2.1c-0.8-0.6-2-1.2-3.5-2c-2-1-3.6-1.9-4.8-2.8
		c-1.1-0.9-1.7-2.2-1.7-3.8c0-1.7,0.7-3.2,2-4.5c1.3-1.2,3-1.9,5.2-1.9c1.5,0,2.7,0.2,3.8,0.5s1.9,0.7,2.4,1.2l-0.9,4.3
		c-0.5-1.3-1.2-2.3-2.3-3s-2.2-1-3.4-1c-1,0-1.9,0.3-2.6,0.9c-0.7,0.6-1,1.3-1,2.1c0,1,0.4,1.9,1.2,2.5c0.8,0.6,2.1,1.3,3.8,2
		c2,0.9,3.5,1.7,4.6,2.6c1.1,0.9,1.6,2.1,1.6,3.7c0,1.1-0.3,2.2-0.9,3.1c-0.6,1-1.5,1.8-2.7,2.3c-1.2,0.6-2.5,0.9-4.1,0.9
		C165.7,47,164.5,46.8,163.3,46.4z"/>
	<path class="st0" d="M190.1,47c-2,0-3.6-0.6-4.9-1.9c-1.3-1.3-1.9-3.3-1.9-5.9V31c0-1.6-0.2-2.8-0.7-3.7c-0.5-0.9-1-1.4-1.7-1.7
		c-0.6-0.3-0.9-0.4-0.9-0.3h7v13c0,1.8,0.5,3.2,1.5,4.2s2.2,1.5,3.5,1.5c1.4,0,2.6-0.5,3.6-1.4c1.1-0.9,1.6-2.1,1.6-3.6v-8.5
		c0-1.5-0.2-2.6-0.6-3.4c-0.4-0.8-0.8-1.3-1.3-1.6c-0.5-0.3-0.8-0.4-0.8-0.3h6.4v14.6c0,1.6,0.3,2.7,0.8,3.3s1.1,0.9,1.8,0.9h0.3
		l-6.6,3v-4.1C195.3,45.6,192.9,47,190.1,47z"/>
	<path class="st0" d="M211.2,7.3c-0.5-0.6-1.1-0.9-1.8-0.9h-0.3l6.6-3V35l5.8-4.9c0.9-0.7,1.6-1.5,2.1-2.1c0.6-0.7,0.9-1.2,0.9-1.5
		s-0.1-0.6-0.3-0.7c-0.2-0.2-0.4-0.3-0.6-0.3c-0.2-0.1-0.3-0.1-0.4-0.1h8.4c-0.1,0-0.4,0.2-1,0.5c-0.5,0.3-1.4,0.9-2.5,1.7
		c-1.1,0.8-2.5,1.9-4.1,3.2l-4.3,3.5l6.9,7.1c1.5,1.5,2.7,2.6,3.6,3.2c0.9,0.6,1.6,0.9,2,0.9h0.2c-0.6,0.4-1.3,0.7-2.1,0.9
		s-1.5,0.3-2.1,0.3c-0.7,0-1.5-0.3-2.2-0.8c-0.7-0.6-1.6-1.4-2.7-2.6l-0.9-0.9l-6.9-7.2v5.4c0,1.7,0.2,3,0.6,3.8
		c0.4,0.9,0.8,1.4,1.2,1.7s0.7,0.4,0.7,0.3h-8.4c0,0.1,0.2,0,0.6-0.3c0.4-0.3,0.8-0.9,1.1-1.7c0.3-0.9,0.5-2.1,0.5-3.8v-30
		C212,9,211.7,7.9,211.2,7.3z"/>
	<path class="st0" d="M250.8,46c-0.9-0.6-1.3-1.3-1.5-2.1c-0.7,1-1.6,1.8-2.8,2.3c-1.1,0.5-2.3,0.8-3.4,0.8c-1.8,0-3.3-0.5-4.5-1.5
		s-1.8-2.4-1.8-4c0-4.3,4-6.4,12.1-6.4v-0.6c0-2.1-0.3-3.7-0.9-4.7c-0.9-1.4-2.2-2.1-4.2-2.1c-1.5,0-2.8,0.4-3.7,1.3
		c-1,0.9-1.5,2-1.5,3.5c-0.2-0.4-0.4-0.7-0.6-1c-0.1-0.3-0.2-0.7-0.2-1.3c0-1.4,0.7-2.6,2-3.7s3-1.6,5.2-1.6c3,0,5.2,1,6.4,3
		c0.4,0.6,0.7,1.4,0.9,2.3s0.3,2.1,0.3,3.7v6.9c0,1.2,0.3,2.1,1,2.8s1.6,1,2.9,1h0.8l-3.4,2.6C252.7,46.9,251.6,46.6,250.8,46z
		 M242.7,37.8c-1.1,0.8-1.6,1.8-1.6,3.1c0,1.1,0.3,1.9,0.9,2.6c0.6,0.6,1.4,0.9,2.3,0.9c0.7,0,1.4-0.2,2.1-0.5
		c0.7-0.3,1.2-0.8,1.7-1.5c0.6-0.8,0.9-1.9,0.9-3.3v-2.5C245.9,36.7,243.8,37.1,242.7,37.8z"/>
	<path class="st0" d="M287.3,8.7v16.5h10c1.4,0,2.4-0.2,2.9-0.6s0.7-0.8,0.7-1v5.7c0-0.1-0.1-0.3-0.3-0.6c-0.2-0.3-0.5-0.5-1-0.8
		s-1.3-0.4-2.3-0.4h-10v13.4c0,1.5,0.2,2.7,0.6,3.5s0.8,1.3,1.3,1.6s0.7,0.4,0.7,0.3h-9.2c0,0.1,0.2,0,0.7-0.3s0.9-0.8,1.2-1.6
		c0.4-0.8,0.6-2,0.6-3.5V12c0-1.6-0.2-2.8-0.6-3.6s-0.8-1.4-1.2-1.7c-0.5-0.3-0.7-0.4-0.7-0.3h21v5.9c-0.2-0.9-0.7-1.8-1.6-2.5
		s-2.1-1.1-3.8-1.1C296.3,8.7,287.3,8.7,287.3,8.7z"/>
	<path class="st0" d="M317.6,47c-2,0-3.6-0.6-4.9-1.9c-1.3-1.3-1.9-3.3-1.9-5.9V31c0-1.6-0.2-2.8-0.7-3.7c-0.5-0.9-1-1.4-1.7-1.7
		c-0.6-0.3-0.9-0.4-0.9-0.3h7v13c0,1.8,0.5,3.2,1.5,4.2s2.2,1.5,3.5,1.5c1.4,0,2.6-0.5,3.6-1.4c1.1-0.9,1.6-2.1,1.6-3.6v-8.5
		c0-1.5-0.2-2.6-0.6-3.4s-0.8-1.3-1.3-1.6c-0.5-0.3-0.8-0.4-0.8-0.3h6.4v14.6c0,1.6,0.3,2.7,0.8,3.3s1.1,0.9,1.8,0.9h0.3l-6.6,3
		v-4.1C322.8,45.6,320.4,47,317.6,47z"/>
	<path class="st0" d="M346.3,25.8c1.2-0.7,2.5-1.1,3.9-1.1c2.1,0,3.8,0.7,5,2c1.3,1.3,1.9,3.3,1.9,5.8v8.1c0,1.6,0.2,2.9,0.5,3.7
		c0.3,0.9,0.7,1.4,1.2,1.7c0.4,0.3,0.6,0.4,0.6,0.3H351c0,0.1,0.2,0,0.6-0.3s0.8-0.9,1.2-1.7c0.3-0.9,0.5-2.1,0.5-3.8v-6.6
		c0-1.3-0.2-2.4-0.5-3.1c-0.3-0.8-0.8-1.4-1.4-1.9c-0.9-0.7-2-1.1-3.2-1.1c-1.4,0-2.6,0.5-3.6,1.4s-1.5,2.2-1.5,3.8v7.6
		c0,1.7,0.2,2.9,0.5,3.8c0.3,0.9,0.7,1.4,1.2,1.7c0.4,0.3,0.7,0.4,0.7,0.3h-8.4c0,0.1,0.2,0,0.6-0.3s0.8-0.9,1.1-1.7
		c0.3-0.9,0.5-2.1,0.5-3.8v-8.8c0-1.6-0.3-2.7-0.8-3.3c-0.5-0.6-1.1-0.9-1.8-0.9l6.3-2.8v3.9C344,27.4,345.1,26.5,346.3,25.8z"/>
	<path class="st0" d="M370.4,45.4c-1.5-1-2.7-2.4-3.5-4s-1.2-3.4-1.2-5.2c0-2.4,0.5-4.5,1.4-6.2s2.2-3.1,3.7-3.9
		c1.5-0.9,3.1-1.3,4.7-1.3c2.3,0,4.3,0.8,6,2.5s2.6,4,2.8,7h-15.1c0,1.9,0.3,3.5,1,4.9s1.6,2.5,2.8,3.2c1.2,0.8,2.5,1.1,3.9,1.1
		c3.6,0,6.1-1.2,7.4-3.5c-0.3,2.1-1.3,3.8-2.8,5c-1.5,1.3-3.4,1.9-5.7,1.9C373.7,47,371.9,46.4,370.4,45.4z M371.3,28.2
		c-1.1,1.1-1.7,2.4-2,4.1h10.6c0-1.8-0.5-3.2-1.4-4.2s-2-1.5-3.3-1.5C373.7,26.6,372.4,27.1,371.3,28.2z"/>
	<path class="st0" d="M399.6,26.4c1.3-1.1,2.7-1.7,4-1.7c0.9,0,1.5,0.1,1.9,0.3v4.8c-0.9-1-2-1.6-3.6-1.6s-2.9,0.7-3.8,2.1
		s-1.4,3.2-1.4,5.4v4.7c0,2.2,0.3,3.7,0.8,4.5s1,1.3,1.5,1.3h-8.2c0.5-0.1,1-0.5,1.5-1.3s0.8-2.3,0.8-4.5v-8.8
		c0-1.6-0.3-2.7-0.8-3.3c-0.5-0.6-1.1-0.9-1.8-0.9l6.3-2.8V30C397.3,28.7,398.3,27.5,399.6,26.4z"/>
	<path class="st0" d="M425.3,46c-0.9-0.6-1.3-1.3-1.5-2.1c-0.7,1-1.6,1.8-2.8,2.3c-1.1,0.5-2.3,0.8-3.4,0.8c-1.8,0-3.3-0.5-4.5-1.5
		s-1.8-2.4-1.8-4c0-4.3,4-6.4,12.1-6.4v-0.6c0-2.1-0.3-3.7-0.9-4.7c-0.9-1.4-2.2-2.1-4.2-2.1c-1.5,0-2.8,0.4-3.7,1.3
		c-1,0.9-1.5,2-1.5,3.5c-0.2-0.4-0.4-0.7-0.6-1c-0.1-0.3-0.2-0.7-0.2-1.3c0-1.4,0.7-2.6,2-3.7s3-1.6,5.2-1.6c3,0,5.2,1,6.4,3
		c0.4,0.6,0.7,1.4,0.9,2.3c0.2,0.9,0.3,2.1,0.3,3.7v6.9c0,1.2,0.3,2.1,1,2.8s1.6,1,2.9,1h0.8l-3.4,2.6
		C427.2,46.9,426.2,46.6,425.3,46z M417.3,37.8c-1.1,0.8-1.6,1.8-1.6,3.1c0,1.1,0.3,1.9,0.9,2.6c0.6,0.6,1.4,0.9,2.3,0.9
		c0.7,0,1.4-0.2,2.1-0.5s1.2-0.8,1.7-1.5c0.6-0.8,0.9-1.9,0.9-3.3v-2.5C420.5,36.7,418.4,37.1,417.3,37.8z"/>
	<path class="st0" d="M437.5,7.3c-0.5-0.6-1.1-0.9-1.8-0.9h-0.3l6.6-3v37.1c0,1.7,0.2,3,0.5,3.8c0.3,0.9,0.7,1.4,1.2,1.7
		c0.4,0.3,0.6,0.4,0.6,0.3H436c0,0.1,0.2,0,0.6-0.3s0.8-0.9,1.2-1.7s0.5-2.1,0.5-3.8V10.6C438.3,9,438,7.9,437.5,7.3z"/>
	<path class="st0" d="M474.6,46.1c-1.9-0.6-3.5-1.3-5-2.3v-7c1,2.6,2.5,4.6,4.6,5.9c2.1,1.3,4.2,2,6.5,2c2.2,0,4.1-0.7,5.6-2.2
		s2.3-3.3,2.3-5.5c0-1.5-0.3-2.7-0.9-3.8s-1.6-2-2.9-2.9s-3.2-1.9-5.6-3c-3.4-1.5-5.8-3.2-7.3-4.8s-2.3-3.7-2.3-6.1
		c0-2,0.5-3.9,1.5-5.5s2.3-2.8,4-3.7s3.5-1.3,5.5-1.3c1.7,0,3.4,0.2,5.1,0.7s3.2,1.2,4.6,2.1V15c-0.9-2.1-2.3-3.8-4.2-5
		c-1.9-1.2-3.8-1.8-5.7-1.8c-2.2,0-4,0.7-5.3,2.1c-1.4,1.4-2,3.1-2,5.1c0,1.4,0.4,2.7,1.2,3.7c0.8,1,1.8,1.9,3,2.6s2.8,1.5,5,2.6
		c2.2,1,3.9,2,5.3,2.9s2.6,2,3.5,3.5c0.9,1.4,1.4,3.2,1.4,5.2c0,2.3-0.6,4.3-1.7,6s-2.6,3-4.4,3.9s-3.8,1.4-6,1.4
		C478.4,47,476.5,46.7,474.6,46.1z"/>
	<path class="st0" d="M508.7,47c-2,0-3.6-0.6-4.9-1.9c-1.3-1.3-1.9-3.3-1.9-5.9V31c0-1.6-0.2-2.8-0.7-3.7c-0.5-0.9-1-1.4-1.7-1.7
		c-0.6-0.3-0.9-0.4-0.9-0.3h7v13c0,1.8,0.5,3.2,1.5,4.2s2.2,1.5,3.5,1.5s2.6-0.5,3.6-1.4c1.1-0.9,1.6-2.1,1.6-3.6v-8.5
		c0-1.5-0.2-2.6-0.6-3.4c-0.4-0.8-0.8-1.3-1.3-1.6c-0.5-0.3-0.8-0.4-0.8-0.3h6.4v14.6c0,1.6,0.3,2.7,0.8,3.3s1.1,0.9,1.8,0.9h0.3
		l-6.6,3v-4.1C513.9,45.6,511.6,47,508.7,47z"/>
	<path class="st0" d="M534.8,57.7c0.3,0.8,0.7,1.4,1.2,1.7c0.4,0.3,0.6,0.4,0.6,0.3h-8.4c0,0.1,0.2,0,0.6-0.3
		c0.4-0.3,0.8-0.9,1.2-1.7c0.3-0.9,0.5-2.1,0.5-3.8V31.7c0-1.6-0.3-2.7-0.8-3.3c-0.5-0.6-1.1-0.9-1.8-0.9l6.3-2.8v3.8
		c0.5-0.8,1.3-1.6,2.5-2.5s2.8-1.3,4.8-1.3c1.7,0,3.2,0.4,4.6,1.3c1.4,0.9,2.4,2,3.2,3.5s1.2,3.2,1.2,5c0,2.4-0.5,4.4-1.5,6.3
		c-1,1.8-2.2,3.3-3.8,4.4c-1.7,1.2-3.6,1.8-5.7,1.8c-1.4,0-2.5-0.2-3.4-0.6c-0.9-0.4-1.5-0.7-2-1v8.5
		C534.3,55.6,534.5,56.9,534.8,57.7z M544.7,29.9c-1.1-1.8-2.8-2.7-5-2.7c-0.8,0-1.6,0.2-2.5,0.7s-1.5,1.1-2.1,1.8
		c-0.5,0.8-0.8,1.6-0.8,2.6v6.8c0,1.2,0.1,2.2,0.4,3s0.7,1.4,1.4,1.7c1,0.6,2.1,0.9,3.5,0.9c1.9,0,3.5-0.8,4.8-2.3
		c1.3-1.6,1.9-3.6,1.9-6.2C546.4,33.8,545.8,31.7,544.7,29.9z"/>
	<path class="st0" d="M563.5,57.7c0.3,0.8,0.7,1.4,1.2,1.7c0.4,0.3,0.6,0.4,0.6,0.3h-8.4c0,0.1,0.2,0,0.6-0.3
		c0.4-0.3,0.8-0.9,1.2-1.7c0.3-0.9,0.5-2.1,0.5-3.8V31.7c0-1.6-0.3-2.7-0.8-3.3c-0.5-0.6-1.1-0.9-1.8-0.9l6.3-2.8v3.8
		c0.5-0.8,1.3-1.6,2.5-2.5s2.8-1.3,4.8-1.3c1.7,0,3.2,0.4,4.6,1.3c1.4,0.9,2.4,2,3.2,3.5s1.2,3.2,1.2,5c0,2.4-0.5,4.4-1.5,6.3
		c-1,1.8-2.2,3.3-3.8,4.4c-1.7,1.2-3.6,1.8-5.7,1.8c-1.4,0-2.5-0.2-3.4-0.6c-0.9-0.4-1.5-0.7-2-1v8.5
		C563,55.6,563.2,56.9,563.5,57.7z M573.3,29.9c-1.1-1.8-2.8-2.7-5-2.7c-0.8,0-1.6,0.2-2.5,0.7s-1.5,1.1-2.1,1.8
		c-0.5,0.8-0.8,1.6-0.8,2.6v6.8c0,1.2,0.1,2.2,0.4,3s0.7,1.4,1.4,1.7c1,0.6,2.1,0.9,3.5,0.9c1.9,0,3.5-0.8,4.8-2.3
		c1.3-1.6,1.9-3.6,1.9-6.2C575,33.8,574.5,31.7,573.3,29.9z"/>
	<path class="st0" d="M587.1,7.3c-0.5-0.6-1.1-0.9-1.8-0.9H585l6.6-3v37.1c0,1.7,0.2,3,0.5,3.8s0.7,1.4,1.2,1.7
		c0.4,0.3,0.6,0.4,0.6,0.3h-8.4c0,0.1,0.2,0,0.6-0.3c0.4-0.3,0.8-0.9,1.2-1.7c0.3-0.9,0.5-2.1,0.5-3.8V10.6
		C587.9,9,587.7,7.9,587.1,7.3z"/>
	<path class="st0" d="M608.4,44.5l-6.8-15.4c-0.7-1.5-1.3-2.5-1.9-3c-0.6-0.6-1.1-0.9-1.4-1h8.5c-0.3,0.1-0.7,0.3-1,0.5
		c-0.3,0.3-0.5,0.8-0.5,1.4c0,0.7,0.2,1.4,0.6,2.2l4.7,10.8l4.2-10.3c0.3-0.7,0.4-1.4,0.4-2.1s-0.1-1.3-0.4-1.7
		c-0.3-0.5-0.8-0.8-1.4-0.9h7.8c-0.4,0.1-1,0.4-1.7,1s-1.3,1.7-2,3.2l-7.9,18.3c-1,2.4-1.8,4.4-2.3,5.8c-0.5,1.4-1,2.9-1.5,4.4
		c-0.2,0.7-0.4,1.4-0.6,1.9h-5.9c1-0.5,2.3-1.9,3.9-4.2c1.5-2.3,3.1-5.5,4.7-9.4L608.4,44.5z"/>
	<path class="st0" d="M129.5,79.8c-0.4,2.6-2.8,7.2-7.7,9.2c-0.9,0.4-1.3-0.5-0.5-1c4.1-2.6,6.1-6.4,6.1-8.2c0-0.9-1.1-1-1.1-1.5
		c0-0.4,0.6-0.7,1.2-0.7c0.6,0,1.5,0.4,2,0.8c1.3-0.9,2.4-1.8,3.4-3c0.4-0.5,0.4-0.7-0.2-0.7c-0.6,0-4.6,0.8-6.3,1.1
		c-2.4,0.5-3.7,0.9-4.5,0.9c-1,0-2.2-1.3-2.3-2.7c0-0.5,0.5-0.6,0.8-0.4c0.8,0.5,1.1,1,2,1c1.1,0,8-0.9,9.3-1.1
		c1.1-0.2,1.7-0.5,2.3-0.5c0.9,0,2.5,1.4,2.5,2.2c0,0.6-1.1,0.8-1.9,1.4c-1.2,0.9-3,2.1-5,3.1L129.5,79.8z"/>
	<path class="st0" d="M154.5,75.4c1.4,0,4.6-0.8,5.6-1.1c0.7-0.2,0.9-0.5,1.4-0.5c0.9,0,2.5,1.1,2.5,2c0,0.6-0.8,0.8-1.3,1.6
		c-2.2,3.4-5.9,7.6-12.1,10c-0.8,0.3-1.2-0.8-0.4-1.1c5.1-2.4,9.2-6.7,10.8-9.8c0.5-1,0.3-1-0.4-0.9c-0.9,0.2-5.1,1.9-6.3,1.9
		c-0.8,0-2.1-1-2.3-2.3c-0.1-0.6,0.3-0.8,0.8-0.5C153.5,75.1,153.9,75.4,154.5,75.4z M166.8,86c0,0.6-0.4,1-1,1
		c-0.8,0-1.1-0.9-1.9-1.8c-0.7-0.9-1.4-1.5-2.4-2.3c-0.5-0.4-0.1-1,0.5-0.9C164.4,82.5,166.9,84,166.8,86z"/>
	<path class="st0" d="M196.6,77.7c0,0.5-0.6,0.6-0.7,1.6c-0.2,2.6-0.9,6.1-2.5,7.7c-0.6,0.6-1.1,0.8-1.8,0.8c-1,0-2.2-1.5-2.7-2.3
		c-0.3-0.5-0.1-0.9,0.5-0.6c1,0.5,1.4,0.7,1.9,0.7s1-0.2,1.4-0.7c1.1-1.5,1.7-5,1.6-6.6c0-0.7-0.1-0.8-1-0.6c-0.5,0-2,0.4-3.5,0.7
		c-1.3,4.4-3.7,8.2-8.1,10.7c-0.9,0.5-1.4-0.2-0.6-0.9c2.8-2.2,5.4-5.2,6.7-9.4c-0.5,0.1-0.9,0.2-1.3,0.2c-1.3,0.2-2.8,0.5-3.5,0.5
		c-0.9,0-1.8-1.3-1.8-2.5c0-0.5,0.4-0.6,0.7-0.3c0.8,0.6,1.4,0.8,2,0.9c0.6,0,2.4-0.2,4.2-0.5c0.2-1.2,0.4-2.6,0.3-3.4
		c0-0.5-0.2-0.6-0.6-0.8c-0.5-0.3-0.9-0.4-0.9-0.7c0-0.3,0.7-0.7,1.3-0.7c0.9,0,2.4,0.6,2.4,1.3s-0.2,1.1-0.3,1.7s-0.2,1.6-0.4,2.5
		c1-0.1,2-0.3,2.5-0.4c0.9-0.2,1.2-0.5,1.7-0.5C195.4,75.9,196.6,77,196.6,77.7z"/>
	<path class="st0" d="M214.7,75.1c1.2,0,5.9-0.6,8-0.9c1.1-0.2,1.3-0.5,1.8-0.5c1.1,0,2.7,1.3,2.7,2c0,0.8-0.8,0.8-1.3,1.9
		c-1.7,3.8-5,8.3-12.1,10.6c-0.8,0.2-1.2-0.6-0.4-1c5.7-2.6,9.6-7,10.9-11.1c0.2-0.7,0.1-0.7-0.6-0.7c-1.4,0.1-5.1,0.8-6.6,1.2
		c-1.2,0.3-1.8,0.6-2.6,0.6s-2.2-1.1-2.5-2.4c-0.1-0.6,0.2-0.8,0.8-0.5C213.5,74.8,213.9,75.1,214.7,75.1z"/>
	<path class="st0" d="M257.3,85.8c0,0.5-0.3,0.8-0.8,0.8c-0.9,0-1.9-0.3-4.4-0.3c-1.6,0-4.1,0.2-6.5,0.8c-0.7,0.2-1.2,0.4-1.8,0.4
		c-0.8,0-1.8-0.7-2-1.5c-0.2-0.6,0.1-0.8,0.6-0.7c0.5,0.2,1,0.3,1.5,0.3c0.6,0,3.9-0.4,6.4-0.7c0.5-1.6,0.7-3.3,0.8-4.1
		c0-0.3,0-0.3-0.4-0.3c-0.7,0.1-3.2,1.3-4.2,1.3c-0.8,0-1.7-0.9-1.9-1.9c-0.1-0.5,0.2-0.8,0.8-0.5c0.4,0.2,0.8,0.5,1.4,0.5
		c0.9,0,2.8-0.5,3.6-0.7c0.5-0.2,0.8-0.3,1.2-0.3c0.8,0,1.9,0.8,1.9,1.3c0,0.4-0.4,0.7-0.5,1.3c-0.1,0.6-0.5,1.9-0.9,3.2
		c1.7-0.1,2.7-0.2,3.2-0.2C256.4,84.5,257.3,85.1,257.3,85.8z"/>
	<path class="st0" d="M274.3,80.1c1.3,0,6.9-0.6,8.6-0.8c2.1-0.3,2.7-0.5,3.7-0.5s2.6,0.6,2.6,1.7c0,0.4-0.2,0.7-1,0.7
		c-0.9,0-1.4-0.1-3.3-0.1s-7.2,0.6-8.4,0.8c-1.1,0.2-1.9,0.4-2.8,0.4c-1.1,0-2.3-1.5-2.3-2.7c0-0.4,0.3-0.6,0.7-0.3
		C272.7,79.5,273.4,80.1,274.3,80.1z"/>
	<path class="st0" d="M311.3,81.2c0.4,0.2,0.6,0.5,0.6,0.7c0.1,0.9,0.1,5.5,0,6.1s-0.4,0.9-0.9,0.9s-1-0.5-1-1.5
		c0-0.8,0.5-3.3,0.5-4.4c0-0.3-0.1-0.7-0.2-1c-1.4,1.2-4.4,3.2-7.9,4.3c-0.8,0.3-1.1-0.6-0.4-0.9c3.4-1.7,8.6-5,10.8-8.3
		c0.1-0.2,0-0.4-0.2-0.4c-0.6,0.1-3.8,1-4.8,1.3c-0.9,0.3-1.4,0.6-1.9,0.6c-0.9,0-2-1.3-2.1-2.4c0-0.4,0.3-0.5,0.6-0.3
		c0.5,0.3,1,0.8,1.5,0.8c1.3,0,5.6-1,6.3-1.2c0.6-0.2,0.9-0.6,1.2-0.6c0.9,0,2.4,0.9,2.4,1.7c0,0.5-1,0.8-1.6,1.6
		C313.5,79,312.5,80.1,311.3,81.2z M308.1,70.7c1.6,0.1,4.1,1,4.1,2.4c0,0.5-0.4,1-1,1c-0.4,0-0.7-0.2-1.3-0.8
		c-0.6-0.6-1.3-1.3-2.1-1.9C307.5,71,307.6,70.7,308.1,70.7z M319.5,83.9c0,0.4-0.4,0.9-0.9,0.9c-0.7,0-0.9-0.4-1.8-1.2
		c-0.8-0.7-1.5-1.2-2.3-1.8c-0.5-0.4-0.3-0.9,0.3-0.9C316.1,81.1,319.5,82.3,319.5,83.9z"/>
	<path class="st0" d="M336.6,78.5c1.4,0,6.6-0.9,8-1.2c0.7-0.1,0.8-0.4,1.2-0.4c1.1,0,2.6,1.1,2.6,1.8c0,0.5-0.7,0.9-1,1.5
		c-2.3,4-5.3,7.4-10.6,9c-0.8,0.2-1.2-0.6-0.3-1c4.6-2,7.8-5.8,9-9c0.1-0.4,0.2-0.6-0.5-0.5c-1.1,0.1-4.8,0.9-6.1,1.3
		c-1,0.3-1.7,0.6-2.4,0.6c-0.7,0-2-1-2.2-2.4c-0.1-0.5,0.3-0.7,0.8-0.4C335.6,78.2,335.9,78.5,336.6,78.5z M339.4,73.1
		c2.1,0,3.8-0.9,4.6-0.9c0.8,0,1.6,0.3,1.6,0.8s-0.4,0.8-1,1s-3,0.9-4.9,0.9c-1.5,0-2.4-0.8-2.8-1.8c-0.2-0.5,0-0.8,0.6-0.5
		C338,72.8,338.7,73.1,339.4,73.1z"/>
	<path class="st0" d="M366.7,77c1.2,0,2.8,0.9,2.8,2c0,3.7-3.9,7.6-8.1,8.7c-0.7,0.2-1-0.5-0.3-0.9c3.3-1.7,6.4-4.6,6.3-7.3
		c0-0.6-0.3-0.7-0.9-1.2c-0.5-0.3-1.1-0.5-1.1-0.8C365.4,77.2,366.1,77,366.7,77z M372.5,77c-0.1-1-0.3-1.3-1-1.7
		c-0.9-0.5-1.2-0.6-1.2-0.9c0-0.4,0.8-0.7,1.2-0.7c1.5,0,2.9,1,2.9,1.6c0,0.5-0.2,1.2-0.2,1.8c0,0.9-0.5,4.3-0.6,5.4
		c-0.1,0.8,0.2,1,0.8,0.7c2.6-0.9,5.9-3,7.6-4.3c0.8-0.6,1.4,0,0.7,0.8c-1.5,1.7-4.4,3.7-7.7,5.3c-0.7,0.3-1,0.9-1.8,0.9
		c-0.7,0-1.5-1.3-1.5-2c0-0.5,0.2-1,0.4-1.9C372.4,81.2,372.6,78.3,372.5,77z"/>
	<path class="st0" d="M412.8,77.5c0,0.5-0.3,0.7-0.7,0.7c-0.5,0-1.8-0.3-2.8-0.3c-0.7,0-1.7,0.1-2.8,0.2c-0.2,5.3-2.1,8.6-6.5,10.7
		c-1,0.5-1.5-0.3-0.6-1c3.6-2.5,5-4.8,5.3-9.5c-1.2,0.1-2.7,0.4-3.9,0.6c0,1.8,0,3.4-0.1,3.9c-0.1,0.7-0.3,1.3-0.8,1.3
		c-0.6,0-1.1-0.6-1.1-1.6c0-0.7,0.4-1.3,0.4-3.3c-2.6,0.5-4,0.9-4.8,0.9c-0.9,0-2-1.2-2.1-2.4c0-0.4,0.2-0.6,0.7-0.3
		c0.6,0.3,1.4,0.8,2.1,0.8c0.8,0,2.5-0.2,4.1-0.5c0-1.1-0.2-1.9-0.3-2.4c-0.1-0.5-0.2-0.6-0.8-1c-0.6-0.4-0.9-0.4-0.9-0.7
		c0-0.4,0.8-0.6,1.3-0.6c1,0,2,0.6,2.2,1.1c0.1,0.5,0.1,1.8,0.1,3.4c1.2-0.2,2.8-0.4,4-0.6c0-1.2-0.1-2.5-0.2-3.2
		c-0.1-0.8-0.2-1-0.8-1.3c-0.5-0.2-1-0.4-1-0.8s1-0.6,1.4-0.6c1.2,0,2.2,0.7,2.3,1.3c0.1,0.4,0,0.9,0,1.8c0,0.6,0,1.5,0,2.5
		c2.5-0.4,3.2-0.6,3.9-0.6C411.2,76,412.8,76.6,412.8,77.5z"/>
	<path class="st0" d="M427.9,75.5c1.2,0,5.9-0.6,8-0.9c1.1-0.1,1.3-0.5,1.8-0.5c1.1,0,2.7,1.3,2.7,2c0,0.8-0.8,0.8-1.3,1.9
		c-1.7,3.8-5,8.3-12.1,10.6c-0.8,0.2-1.2-0.7-0.4-1c5.7-2.6,9.6-7,10.9-11.1c0.2-0.7,0.1-0.7-0.6-0.6c-1.5,0.1-5.1,0.8-6.6,1.2
		c-1.2,0.3-1.8,0.6-2.6,0.6c-0.8,0-2.2-1.1-2.5-2.4c-0.1-0.6,0.2-0.9,0.8-0.5C426.7,75.2,427.2,75.5,427.9,75.5z M439.3,72
		c0-1.6,1.3-2.9,2.9-2.9s2.9,1.3,2.9,2.9s-1.3,2.9-2.9,2.9C440.6,74.9,439.3,73.6,439.3,72z M444.1,72c0-1-0.8-1.8-1.8-1.8
		s-1.9,0.8-1.9,1.8s0.8,1.9,1.9,1.9C443.3,73.9,444.1,73,444.1,72z"/>
	<path class="st0" d="M458.6,78.5c1.3,0,6.6-0.9,8-1.2c0.6-0.1,0.8-0.4,1.2-0.4c1.1,0,2.6,1.1,2.6,1.8c0,0.5-0.7,0.9-1,1.5
		c-2.3,4-5.3,7.4-10.6,9c-0.8,0.2-1.2-0.6-0.3-1c4.6-2,7.8-5.8,9-9c0.2-0.4,0.2-0.6-0.5-0.5c-1.1,0.1-4.8,0.9-6.1,1.3
		c-1,0.3-1.7,0.6-2.4,0.6c-0.7,0-2-1-2.2-2.4c-0.1-0.5,0.3-0.7,0.8-0.4C457.6,78.2,457.9,78.5,458.6,78.5z M461.4,73.1
		c2.1,0,3.8-0.9,4.6-0.9c0.8,0,1.6,0.3,1.6,0.8s-0.3,0.8-1,1c-0.6,0.2-3,0.9-4.9,0.9c-1.5,0-2.4-0.8-2.8-1.8c-0.2-0.5,0-0.8,0.6-0.5
		C460,72.8,460.7,73.1,461.4,73.1z"/>
	<path class="st0" d="M498.6,75.1c-0.8,1-1.8,2.2-3.1,3.5c0.1,0.1,0.2,0.1,0.3,0.2c0.4,0.4,0.5,0.7,0.6,1.5c0.2,2,0.2,5.7,0,7.6
		c-0.1,0.8-0.6,1.1-1.1,1.1c-0.8,0-1.1-0.9-1.1-1.8c0-0.5,0.2-1,0.3-1.7c0.2-1.3,0.3-4.1,0.2-5.1c0-0.3-0.1-0.5-0.3-0.8
		c-2.6,2.4-5.7,4.6-8.4,5.9c-1,0.5-1.4-0.5-0.6-1c4.6-2.9,9.5-7.2,11.1-10.2c0.5-0.8,0.4-1.2-0.4-2.1c-0.4-0.5-0.3-0.8,0.3-0.8
		c1.3,0,2.9,1.2,2.9,2.1C499.4,74.1,498.9,74.6,498.6,75.1z"/>
</g>
<g id="Contours">
	<g>
		<path class="st0" d="M93,22.1c-0.7,0.1,0.1-0.8-0.2-1.5c-0.3-1.7-0.8-2.9-0.7-4.7c-0.9-0.1-0.2-2.4-1.2-1.8c0.1-0.4,0-0.8,0.3-0.8
			c-0.3-1.7-0.4,0.1-0.7-1.4c-0.1-0.5-0.8-0.6-0.7-1.2c0.4-0.5-0.6-0.6-0.4-1.2C81.8-2.2,72.3-2.2,63.5,4.8c0,0,0,0,0,0
			C49.9,15.6,38.2,43.1,38.4,70.5C18.7,59.2-2.4,43.7,8,22.2c0-0.9,0.9-0.8,0.3-2c0.7,0.2,1.9-1.6,1.1-1.2c0-0.4,0.7-0.7,0-1
			c0.8-0.1-0.4,1.2,0.5,0.8c0.5-0.4-0.1-0.8,0.6-1.1c0.3-0.1,0.3-0.2,0.1-0.4c0.5,0.1,0.4-0.1,0.3-0.3c0.8,0.5,0.9-0.6,0-0.2
			c0.1-0.1,0.1-0.3,0-0.3c-0.4,0.1-0.2,0.5-0.5,0c0.1-0.1,0.2-0.1,0.2-0.1c0,0,0,0.1,0,0.2c0.2,0,0.2-0.6,0.5-0.4
			c0.5,0.2,0.4-0.2,0.8-0.3c-0.2,0.1-0.1,0.3,0.1,0.2c0.5,0,0.1-0.5,0.4-0.7c-0.2,0.5,0.3,0.4,0.3,0.1c0.1-0.4,3.4-1.6,2.8-2.4
			c0.8,0.1,0.9-0.7,2-0.5c0-0.6,0.5-0.2,0.3-0.5c-1.3-1,2.3-1.1,0.8-0.6c-0.1,0.1,0,0.2,0.1,0.2c-0.1,0.3-0.2-0.2-0.3,0
			c-0.4,0.9,1.6-0.1,1.6-0.9c1.1-0.2,0.3,0.2,0.7,0.3c8.2-3.3,15.7,0.5,19,8.9c0-0.1-0.1-0.2-0.1-0.3l0,0c0-0.1,0-0.2,0-0.3
			c0,0,0,0,0,0c0,0,0,0,0,0c0,0,0,0,0,0c0.3,1.1,0.6,2.3,0.9,3.4l0-0.1c0.1,0.3,0.1,0.7,0.2,1c-0.1-0.3-0.1-0.6-0.2-0.9
			c0.1,0.5-0.1-0.2-0.1-0.1c0,0.7,0.3,1,0.4,1.7c0-0.4,0-0.1,0.1,0.2c0.2,0.8,0-0.1,0.1,0.4c0.1,0.2,0.1,1.5,0.2,1.2
			c0-0.2-0.1-1.2-0.2-1.6c0.1,0.1,0-0.3,0.1,0.2c0,0.1,0,0.3,0.1,0.4c0-0.1,0-0.2,0-0.3c0,0,0,0,0,0c0-0.3,0-0.5,0-0.1v0
			c0,0.2,0,0.4,0.1,0.5c0-0.4-0.1-0.4,0-0.6c0,0,0.1,1.8,0.1,2.4c0.1-1.4-0.2-3.7-0.5-5.3C39.5,8.9,23.4,1.3,14.9,9.3
			c-1.6,0.3-4.1,2.7-2.8,0.7c-1.1-0.1-1.3,2.1-2.8,2.6c-0.1,0-0.2,0.2-0.1,0.3c-0.2,0-0.4-0.2-0.5-0.1c0,0.1-0.5,0.6-0.2,0.5
			c0.6-0.5-0.1,0.5-0.4,0.5c-1-0.5-1.8,3.5-3,2.8c-0.1,0-0.4,0-0.4,0.2C5,16.8,5.2,16.8,5,16.9c-0.2-0.3-0.7,0.3-0.4,0.4
			c0.1,1.7-4.4,6.9-2.3,7c-0.4,0-0.7,0.9-1,0.4c-0.5,0.5,0.5,0.6-0.3,1.2c-0.5,1,0.3,0.7-0.1,2.1c-0.4,0.5,0,0.8-0.5,1.2
			c-0.4,0-0.3,1.2,0.2,0.8c0.2,0.6-0.6,1.5-0.2,1.8c0.1,0-0.1,1.4-0.2,2.4c1.3,0.2,0.1,0.7,0.4,1.3c0.4,0.4-0.1,0.2-0.1,0.5
			c0,0.2,0.6,0,0.2,0.2c-0.4,0.1-1-1.3-0.6,0.3c0.1,0.1,0.2,0.1,0.3,0.1c0.1,0,0.2,0,0.2,0.1h0c0.1,0.1,0.1,0.2,0.1,0.6
			c-0.1-0.1-0.6-0.1-0.5,0.1c0.4,0.2-0.2,1.6,0.9,1.3c0.1,0.1-0.2,1,0.2,0.8c0.4-0.6-0.2,2,0.6,1.1c-0.6,0.8,0.4,1,0,1.2
			c-0.2-0.8-0.8,0.2-0.3,0.3c-0.3,0.1-0.5,0.6-0.1,0.7c0.4,0.3,0.3-0.7,0.6-0.1c-0.2,0.6,1.2,1.2,0.2,1.2c0,0.6,0.2,0.5,0.5,0.2
			c-0.1,0.4-0.4,0.5,0,1.1c0.2,0.1,0.1-0.2,0.1-0.2c0.1,0.1,0.6,1.2,0.6,0.5C4,45.7,3.5,46.2,4,46.5c0.4,0.5-0.1,0-0.2-0.1
			c-0.2,0-0.2,0.3,0,0.4c0,0.3,0.4,0.3,0.5,0.5c0,0.2-0.4,0.3-0.2,0.5c0.5,0.1,1,0.2,0.8,0.8C4.5,48.1,4.5,49.2,5,49
			c0.1,0,0.5,0.3,0.4,0c0.5,1.3,1.5,0.6,1,1.3c0,0,0,0,0,0v0c0,0,0,0.1-0.1,0.1c0,0,0,0,0,0h0v0h0c0.3,0.2-0.5,0.4-0.1,0.9
			c1.5-0.2,1.2,1.9,2.5,1.9c0.3,0.2,0,0.5,0.5,0.7c0.3,0.2,0.3-0.3,0.4-0.1c-0.3,0.3,0.5,0.7-0.2,0.7c-0.2,0.4,1,0.6,1.2,1
			c0,1,2.2,1.8,3,2.5c-0.2,0.6,1.1,0.5,1.3,0.9c0.2,0.6,0.9,0.5,1,1.1c0.3,0.7,0.9,0.3,1,1c0.4,0.3,0.4-0.1,0.2-0.4
			c0.7,0.5,1,1.1,1.8,1.5c0.4,0.3,0.3-0.1,0.7,0c-1,0.6,2.2,0.7,1.8,1.5c1.5-0.1,2.6,2.2,3.3,1.6c0.7,0.3,2,1.8,2.4,0.9
			c0.1,0.6,0.9,0.5,0.4,0.9c1,1,1.1,0,1.3,0.6c0.3,0.2,1.8,1,1.7,0.4c0-0.2,0-0.1,0.2,0.1c-0.3,0.8,1.2,0.9,1.6,1.4
			c2,0.9,4.2,1.9,6.1,3.2c0.3,0.5-0.2,2.4,0.3,2.1c0,0.4-0.5,0.7,0,1c-0.4,1.2,0.2,2.9,0.3,3.8c0.2,0.5,0.4-0.5,0.6,0
			c-0.3-0.1-0.2,0.5,0,0.4c0.6,1,0.2,2.4,0.7,3.2c0.1,0.5-0.2-0.5-0.4-0.4c0,0,0,0,0,0h0c-0.1-0.1-0.1-0.1-0.1,0c0,0,0,0,0,0
			c-0.1,0.2,0.1,0.9,0.4,0.7c0.1-0.2,1.1,2.5,0.6,1.8c-0.5,0,0.2,1.4,0.2,0.6c0.4,0.3,0.1,0,0.2-0.1c0,0.2,0.4,0.6,0,0.7
			c0,0.8,1.4,1.8,1.3,2.7c-0.3,0-0.3,0.6,0,0.3c0.6,1.2,3,3.4,4.9,2.5c0.9,0.1,2.2-1,1.3-1.5c0.3,0.1,0.8-0.8,0.7-0.2
			c0.6-0.3-0.1-1,0.5-1.3c0.3-0.9-0.4-1.9,0.2-2.8c0.3-0.2,0-0.9-0.3-0.6c0-1.3-0.3-1.5-0.4-2.6c-0.1-1.2-0.5-0.1-0.6-0.8
			c0.1-0.3,0-0.5-0.2-0.7c0.3-0.3-0.4-0.6,0.5-0.1c0.2,0-0.1-0.9-0.4-0.6c-0.3,0.2-0.5-0.5-0.1-0.4c-0.8-1.2-2-2.5-2.2-3.7
			c-0.4-0.1-0.1,0.5-0.4,0.3c0-0.2-0.8-0.7-0.5-0.7c0.2,0,0-0.6-0.2-0.4c-0.3,0.4,0-0.4-0.4-0.5c-0.8-0.9-2.8-1.9-3.3-3
			C35.2,44.1,58.2-7.1,81.4,4.7c11.5,10.7,4.3,30-0.8,38.8c0.4,0.5-0.4-0.1-0.4,0.4c-0.1,0.5,0.4,0.2,0.6,0.1
			c-0.3,0.5,0.3,0.3,0.3,0c0.2,0.2,0,0.8,0,0.3c-0.1-0.2-0.2,0.3-0.3,0.5c-0.4-0.3-0.6,0.1-0.8,0.4c0.4-1-3,2.8-2.9,4
			c-0.4,0-0.7,0-0.4,0.5c-0.3,0.3-1.5,0.4-0.9,0.9c-0.7,0,0.1,0.5-0.2,1c0.1-0.6-0.6,0.3-0.6-0.2c-3.5,4-7.5,7.2-12,10.1
			c-1.5,1-3.2,2-4.8,3c-0.3-0.1-3.9,2.3-5,2.8l0.7-0.3c-0.6,0.4-1.7,0.9-2.2,1.2c0.1-0.1,0.2-0.1,0-0.1c0,0,0.1-0.1,0.2-0.1
			c-1.1,0.6-2.2,1.1-3.4,1.7l0.2-0.2c-0.4,0.1-1.4,0.9-1.4,0.7c-0.7,0.4-1.4,0.7-2.1,1.1c0.3,0,0.1,0.2,0,0.3c0.1,0.3,0.7-0.3,1-0.4
			c-0.1,0.2-0.5,0.3-0.7,0.4c0.5,0,2.2-1.1,2.6-1c-0.1,0.1-0.4,0.3,0.1,0.1c-0.1,0.1,0.1,0,0.2-0.1c0.4-0.1-0.7,0.3-0.8,0.4
			c0.7-0.2,1.4-0.7,2.2-0.8c-0.3,0.2-1,0.3-1.1,0.5c2.4-1,4.9-1.9,7.2-3c-0.4,0.1-0.7,0.3-1.1,0.4c0.7-0.2,1-0.5,1.5-0.9
			c1.1-0.5,0.2-0.5,1.4-1.1c0-0.2,0.8-0.4,0.6-0.2c-0.1,0.1-1.1,0.5-0.4,0.4c0.1,0,0.2,0,0.4-0.1c7.7-4,14-8.6,19-12.7
			c0.5-1.8,3.2-2.8,4.2-4.5c0.3-0.2,0.7-0.5,0.6-0.9c0.9-1.1-0.1,0.4,1.1-0.5c0.5-1.5,1.1-2.3,2.2-3.2c-0.6-0.5,0.3-0.5,0.4-0.9
			c-0.1-0.4,0.4,0,0.3-0.4c0.1-0.3-0.1,0.7,0.2,0.5c0.6-0.5-0.2-0.7,0.3-1.2c0.2,0.5,0.3-0.1,0.5-0.3c0.4-0.4,0-0.6,0.1-0.8
			c0.2-0.1,0.4-0.5,0.1-0.3c0-0.3,0.9-0.6,0.5-0.9c0.2-0.1,0.3-0.3,0.3-0.5c0,0,0,0.1,0,0.1c-0.1,0.2,0.2,0.1,0.2,0
			c0.2,0.1,0.3-0.1,0.2-0.2c0.1,0,0.2,0,0.4-0.1c0.3-0.7-0.4-0.2-0.3-0.5c0.4-0.2,0-1.1,0.5-0.7c0.2-0.2,0.4-0.2,0-0.4
			c0.5-0.2,0.3-0.3,0.5-1c-0.4-0.2,0.3-0.2,0.3-0.7c0.3,0.4,0.4-0.4,0.3-0.6c0.1-0.1,0.3,0.1,0.4-0.1c-0.2-0.2-0.3-0.7,0-0.7
			c0.3,0.4,0.4-0.5,0.1-0.5c0-0.3,0.3-0.6,0-1.1C92.4,33.1,92.4,25.5,93,22.1z M91.8,20.5C91.8,20.5,91.8,20.6,91.8,20.5
			c0.1,0.1,0.1,0.2,0.1,0.2C91.8,20.6,91.6,20.6,91.8,20.5z M91.5,24.5c0,0.1,0,0.2,0,0.3C91.4,24.7,91.5,24.6,91.5,24.5z
			 M91.2,18.6C91.1,18.6,91.1,18.5,91.2,18.6C91.3,18.5,91.5,18.6,91.2,18.6z M31.9,8.5C32,8.5,32,8.5,31.9,8.5
			C32,8.5,32,8.5,31.9,8.5C32,8.5,32,8.5,31.9,8.5C31.9,8.5,31.9,8.5,31.9,8.5z M31.9,8.7C31.9,8.7,31.9,8.7,31.9,8.7
			c0,0,0.1,0.1,0.1,0.2c0,0.1,0,0.1,0.1,0.2C32,9,32,9,32,8.9c0-0.1-0.5-0.1-0.6-0.2c0-0.1-0.2-0.2-0.4-0.2
			C31.3,8.4,31.8,9,31.9,8.7z M30.9,8.5C30.9,8.5,30.9,8.5,30.9,8.5L30.9,8.5L30.9,8.5z M29.6,8.7c0.1,0.1,0.9,0.3,0.5,0
			c0.1,0,0.3,0.1,0.3-0.1c0.2,0.1,0.4,0.2,0.7,0.4c-0.2,0.1,0.2,0.4,0.1,0.5c-0.1,0.1,0.1,0.2,0.1,0.2c0.2,0,0.2-0.2,0.3-0.1
			c-0.1,0-0.3,0-0.2,0.2c-0.2-0.1-0.5-0.1-0.7-0.1c0.4-0.2-0.3-0.3-0.4-0.3c-0.1,0.1,0,0.3-0.2,0.1c0.2-0.2-0.6-0.2-0.6-0.4
			c-0.5,0-1.2-0.2-1.7-0.3c-0.2-0.2-0.4-0.5-0.7-0.5c0.1,0,0.1-0.3,0.2-0.3c0.2,0.1,1,0.4,1.2,0.4C28.2,8.6,29.4,8.6,29.6,8.7z
			 M26.7,6.9C26.7,7,26.9,7.1,27.2,7c0,0,0.1,0.1,0.2,0.1c0.2,0.2,0.5,0.2,0.7,0.3c-0.1,0-0.3,0-0.4,0.2c-0.1-0.1-0.4-0.1-0.4-0.2
			c0-0.3-0.4-0.2-0.6-0.1c-0.3-0.3-0.9,0-1.2-0.1C25.9,7.2,26.4,7.1,26.7,6.9z M23,7.3c0.1,0,0.2,0,0.3,0c-0.1,0-0.1,0.1-0.1,0.1
			C23.3,8,24,8.1,24.4,8.3c-1.3,0-0.8-0.6-1.3-0.5C23.2,7.6,23,7.4,23,7.3z M22.8,8.2c0.2,0,0.5,0,0.5,0.1c-0.1,0-0.3-0.2-0.3,0
			c0.1,0.3-0.5,0.2-0.6,0.4C22.3,8,23,8.6,22.8,8.2z M20.8,7.4c-0.1,0.1-0.2,0.2-0.2,0.3c0,0.1,0,0.1,0,0.1c0-0.2-0.4-0.2-0.5-0.2
			C20.3,7.3,20.5,7.3,20.8,7.4z M19.4,7.2c0.1,0,0.1,0,0.2,0c-0.2,0.1-0.8,0.2-0.4,0.5c0.3,0,0.5-0.3,0.8,0
			c-0.1,0.1,0.1,0.2,0.1,0.2c-0.2,0.1-0.5-0.2-0.7-0.1C18.8,7.7,18.9,7.2,19.4,7.2z M18.6,8.8c0.8-0.1,1.5-0.6,2.3-0.8
			c0.1,0.3,0.6,0.6,0.3,0.9c0,0-0.2,0-0.2,0c-0.1-0.1-0.2-0.3-0.2-0.4c0.1,0.2,0.5,0.1,0.3-0.1c-0.3-0.2-0.3-0.1-0.3-0.1
			c-0.2,0.1-0.3,0.2-0.4,0.3c-0.1-0.3-0.4,0.1-0.6,0.2c-0.2,0-0.2-0.2-0.4,0c-0.3,0.1-0.7,0.2-1,0.2C18.4,9,18.6,8.9,18.6,8.8z
			 M17.3,8.1c0.1,0,0.2-0.1,0.2-0.1c0.3,0.2,0.7,0.1,1-0.1C18.3,8.5,17.3,8,17,8.5C16.5,8.6,17,8.2,17.3,8.1z M16.2,9.8
			c0.1,0,0.3-0.1,0.5-0.1c-0.1,0.1-0.2,0.2-0.3,0.3c0,0.2,0,0.2-0.3,0.3c-0.1,0.1-0.3,0-0.3,0.2c0,0.1,0.1,0,0.1,0
			c0.1,0,0.2,0,0.2,0c-0.1,0.2-0.1,0.2,0.1,0.2c0,0,0,0.1,0,0.1c-0.4-0.1-0.6,0-0.6,0c-0.2,0.3-0.6,0.3-0.9,0.5
			c0.2-0.1,0.5-0.3,0.2-0.5c-0.1-0.1-0.3,0.2-0.4,0.2c0-0.1,0-0.2-0.1-0.3C15.2,10.6,15.7,10.2,16.2,9.8z M14.7,13.4
			C14.6,13.4,14.6,13.4,14.7,13.4c-0.3-0.1-0.2,0.2-0.1,0.2c-0.1,0-0.2,0-0.3,0C14.1,13.3,14.4,13.2,14.7,13.4z M14.3,11
			c-0.1,0.1-0.2,0.2-0.3,0.3c0-0.1-0.1-0.2-0.1-0.3L14.3,11z M12.7,12c0,0.1-0.2,0.1-0.3,0.1C12.5,12,12.5,12,12.7,12z M12.3,12.2
			c0,0.2,0,0.3-0.2,0.4C12.2,12.4,12.3,12.3,12.3,12.2z M8,19.3C8,19.3,8,19.3,8,19.3c0.1-0.3,0-0.6,0.3-0.6C8.4,19,8.1,19.1,8,19.3
			z M8.9,14.9C8.9,15,8.9,14.9,8.9,14.9c0.4-0.1,0.5-0.5,0.8-0.6c0,0.1,0,0.2,0.2,0.3c0,0,0,0.2,0,0.2C9.7,15,9.5,15,9.3,15.1
			c0-0.1,0.1-0.2,0-0.2c-0.2,0-0.3,0.2-0.4,0.2C8.7,15,8.7,15,8.6,15.2c-0.2,0-0.4,0.1-0.3,0.4c0,0-0.1,0-0.1,0
			C8.4,15.3,8.3,14.6,8.9,14.9z M7.8,16c0.5-0.5,0.6,0.2,0.2,0.5c-0.2-0.1,0.3-0.7,0-0.7C7.9,15.9,7.9,16.1,7.8,16
			C7.8,16.1,7.8,16.1,7.8,16z M5.9,18.8c0.1-0.2,0.3-0.5,0.4-0.7c0.5,0.6-0.3,0.7-0.7,1c0-0.1-0.1-0.2-0.1-0.3
			C5.6,18.9,5.8,18.9,5.9,18.8z M1.6,29.6c0-0.1,0-0.2,0-0.2c0.1,0.1,0.1,0.1,0.2,0.1c-0.1,0.2-0.2,0.4-0.4,0.6
			C1.4,30,1.6,29.8,1.6,29.6z M1.3,38c0.1-0.1,0.2-0.3,0.3-0.4c0.1,0.1,0,0.1,0,0.2C1.6,38.1,1.4,38,1.3,38z M2,37.5
			C1.9,37.5,1.9,37.5,2,37.5C1.5,37.1,2.1,36.6,2,37.5z M1.9,34.7c-0.2,0.1-0.4,0.1-0.5,0.5c0,0.2,0.4,0.1,0.4,0.3
			c-0.2,0-0.4,0-0.5,0.1L1.5,35c0-0.1-0.3-0.1-0.4-0.2c0.1-0.5,0.6,0.1,0.8-0.4c0.1-0.1,0.1-0.3,0-0.4c-0.1,0-0.2,0.2-0.3,0.3
			c0,0-0.1-0.1-0.1-0.1C2.1,33.5,2.2,34.5,1.9,34.7z M1.9,31.4c-0.1,0-0.2-0.1-0.3-0.1c0-0.7,0.3-0.2,0.5-0.7
			C2.1,30.8,2.2,31.2,1.9,31.4z M2.2,30.3C2.1,30.1,2,30,1.8,30.1C1.8,29.6,2.3,30,2.2,30.3z M3.1,25.2c0.1,0.1,0.2,0.1,0.2-0.1
			c0-0.1,0-0.2,0-0.2c0.1,0,0.1,0,0.2-0.1c0,0.6,0,1-0.7,0.9c0,0,0,0,0,0C3,25.5,3,25.2,3.1,25.2z M2.8,36.5c-0.4,0-0.1-0.5-0.1-0.8
			c0,0,0-0.1,0-0.1C3,35.9,2.9,36.2,2.8,36.5z M2.9,34.1c-0.2-0.2-0.5-0.1-0.4,0.2c-0.1-0.3-0.1-0.4,0-0.5c0,0,0,0.1,0.1,0.1
			c0.1,0.1,0.3-0.1,0.4,0C3.1,33.9,3,34,2.9,34.1z M3.5,28.5c-0.3-0.2-0.4-0.5-0.3-0.9c0.2,0.2,0.1,0.5,0.3,0.7
			C3.6,28.4,3.6,28.5,3.5,28.5z M3.5,27.1C3.5,27.1,3.5,27.1,3.5,27.1c0.1-0.1,0-0.2-0.1-0.3c-0.2-0.6-0.3,0-0.5,0.3
			c-0.1-0.3,0.1-0.5,0.3-0.8c0.2,0.3,0.4,0.6,0.4,0.9C3.6,27.1,3.5,27.1,3.5,27.1z M5.1,27.6C5,27.6,5,27.8,5,27.9l0.1,0l-0.1,0
			c0,0.1,0,0.2-0.1,0.2C4.9,28,4.8,27.2,5.1,27.6z M4.8,19.5C5.1,19.7,5,20,5,20.3c0.1,0.2,0.1,0.3-0.2,0.3c0-0.1,0.1-0.4-0.1-0.4
			C4.6,19.9,4.8,19.7,4.8,19.5z M4.4,21.8C4.4,21.8,4.4,21.8,4.4,21.8C4.4,21.8,4.4,21.8,4.4,21.8C4.4,21.8,4.4,21.8,4.4,21.8z
			 M4.8,21.3c0,0,0.1-0.1,0.1-0.1c0.1,0.2-0.2,0.5-0.3,0.7C4.3,21.7,4.6,21.5,4.8,21.3z M5.3,35c-0.1,0.1-0.1,0.3-0.2,0.4
			c0,0-0.1,0-0.2,0c-0.1,0-0.1,0-0.1,0.1c0,0.1,0.1,0.3,0.1,0.3c0,0.1-0.1,0.2-0.2,0.4c0,0,0,0,0,0c0-0.2,0-0.4,0-0.5
			c0-0.1-0.1-0.3-0.1-0.3c0.2-0.2,0.2-0.7,0.6-0.5C5.3,34.8,5.3,34.9,5.3,35z M6.1,46.6c-0.1,0-0.2,0-0.2,0c0-0.2,0-0.4,0.1-0.7
			c0.1,0,0.2,0.1,0.2,0.1C6.1,46.2,6.1,46.4,6.1,46.6z M11.3,55.1c0,0,0.1-0.1,0-0.1c0,0-0.1,0-0.1-0.1c-0.1,0-0.1-0.1-0.2-0.1
			c0.1,0,0.2-0.3,0-0.3c-0.2,0-0.2-0.1-0.3-0.3c-0.3-0.6-0.5-0.1-0.9-0.7c0.6-0.4,1.5,0.9,1.8,1.3C11.5,54.8,11.4,55.1,11.3,55.1z
			 M11.1,53.2L11.1,53.2C11.1,53.2,11,53.1,11.1,53.2l0.5,0c0.1,0.1,0.1,0.1,0.1,0.2C11.5,53.4,11.3,53.3,11.1,53.2z M15.3,56.8
			c-0.2,0-0.4-0.1-0.4-0.3C15.1,56.5,15.3,56.6,15.3,56.8z M14.8,58.1c0.1,0,0.1-0.1,0.2-0.1c0.1,0.2,0.3,0.4,0.4,0.6
			C15.2,58.4,15,58.2,14.8,58.1z M15.3,57.9C15.3,57.9,15.2,58,15.3,57.9c-0.1-0.1-0.2-0.3-0.2-0.4c0,0,0.1,0,0.1,0
			c0.1,0.1,0.2,0.2,0.2,0.3C15.4,57.9,15.3,57.9,15.3,57.9z M15.7,56.8C15.7,56.8,15.8,56.8,15.7,56.8c0.2,0.2,0.3,0.5,0.4,0.7
			C15.9,57.3,15.5,57,15.7,56.8z M48.1,88.6c-0.1,0.1-0.1,0.2-0.1,0.1c-0.2-0.1-0.1,0.3-0.1,0.3c0,0-0.1,0-0.1,0
			c0.1-0.2,0-0.6,0.4-0.6C48.4,88.4,48.3,88.4,48.1,88.6z M48.2,87.7c0,0-0.1,0.1-0.1,0.1c-0.1-0.2-0.2-0.3-0.3-0.6
			c0.2,0.4,0.3,0.7,0.5,0.1C48.3,87.5,48.3,87.5,48.2,87.7z M48.6,84.3c-0.1,0.1-0.2,0-0.2,0.2C48.2,84,48.7,83.7,48.6,84.3z
			 M48.3,81.4c-0.7-0.1-0.4,1.1-0.2,0.3c0.2,0.1-0.2,0.4-0.2,0.3c-0.1-0.1-0.3-0.4-0.1-0.5c0-0.1,0.2-0.2,0.1-0.2
			c0.1,0,0.1,0,0.1-0.1C48.1,81.4,48.5,81.1,48.3,81.4z M48,80.8c0,0.1,0,0.2,0,0.3c0,0,0,0,0,0c0-0.1-0.2,0-0.3-0.1
			C47.7,80.9,47.9,80.9,48,80.8z M47.7,86.3c0.2,0.1,0.3,0.3,0.3,0.5c-0.1-0.1-0.1-0.3-0.2-0.4C47.7,86.3,47.7,86.3,47.7,86.3z
			 M42.2,85.3c-0.1-0.1-0.2,0-0.1,0.1c0,0.1,0.1,0.2,0,0.2c-0.1,0-0.2,0.1,0,0.2c0,0.1,0,0.1,0,0.2c-0.3-0.2-0.2-0.2,0-0.5
			c0-0.2-0.2-0.4-0.2-0.6c0.1,0,0.2,0,0.2-0.1C42.3,84.9,42.2,85.1,42.2,85.3z M42.6,81.5c-0.1,0.1-0.3-0.1-0.2-0.2
			C42.4,81.4,42.6,81.3,42.6,81.5z M43.7,89c0.1-0.1,0.1-0.3,0-0.3c-0.1-0.1-0.2-0.3-0.4-0.4c0.1,0,0.2,0,0.3,0
			C43.7,88.4,44,89.1,43.7,89z M44,87.2c0,0,0.1,0,0.1,0c0.1-0.1,0-0.5,0.2-0.2C44.1,87.2,44.4,87.8,44,87.2z M44.7,89.9
			c-0.2,0.2-0.4-0.1-0.6-0.1c0,0,0.1,0,0.2-0.1c0.2,0,0.3,0.1,0.5,0.1C45,89.8,44.9,89.9,44.7,89.9z M45.9,90.1
			c-0.1,0.1-0.3-0.1-0.5-0.2C45.5,90,46,90,45.9,90.1z M47.3,79.7c-0.1,0.3-0.2,0-0.2-0.2C47.2,79.6,47.3,79.7,47.3,79.7z M47,81
			c-0.2-0.1-0.2-0.3-0.2-0.5C47,80.4,46.9,80.8,47,81z M41.9,76.9c0,0.3,0.2,0.6,0.5,0.4c0.2,0.3,0.3,0.7,0.7,0.9
			c0.2,0-0.1,0.4,0.2,0.4c0.1,0,0.1,0,0.1,0.1c-0.1,0.1,0.1,0.2,0.2,0.3c0,0,0,0,0.1,0c0.1,0,0,0-0.1,0c-0.3,0,1.1,1.6,1,1.8
			c0.3,0.6,0.7,1.4,0.8,2.1c0,0.1,0.2,0.2,0.2,0.2c-0.1,0.1,0,0.3,0.2,0.3c0.1,0,0.1,0,0.1,0.1c-0.2,0.2-0.1,0.3,0.2,0.3
			c-0.2,0.1-0.3,0.5,0.1,0.5c-0.2,0.1-0.3,0.2-0.1,0.2c-0.2,0.2,0,0.5,0,0.7c0,0.2,0.5,0.5,0.2,0.6c-0.3,0-0.1,0.5-0.1,0.6
			c0.1,0.1,0.2,0,0.2,0.2c-0.3,0.2-0.3,0.7,0.1,0.9c0,0.1-0.3,0-0.3,0.2c0,0.2,0.1,0.4,0.1,0.5c-0.3,0.1-0.3,0.7-0.5,0.5
			c-0.2,0-0.1,0-0.2-0.2c0.1-0.3-0.5-0.8-0.8-0.7c0.2-0.2,0.1-0.3-0.2-0.2c0.1-0.2,0.1-0.3,0-0.5c0-0.1,0-0.2-0.1-0.2
			c-0.2-0.2,0-0.1,0.1-0.3c0-0.1-0.1-0.3-0.2-0.4c-0.2-0.2-0.5,0.1-0.6,0c0.1-0.2,0.1-0.2,0.3-0.3c-0.1-0.3-0.2-0.4-0.1-0.7
			c-0.4-0.1,0-0.3-0.4-0.4c-0.2,0.1-0.6,0.3-0.4-0.1c0.2,0,0.1-0.2,0.2-0.3c-0.2-0.4-0.5,0-0.4-0.2c0.1-0.1-0.2-0.4,0-0.3
			c0.3,0,0-0.3,0.3-0.4c0.2-0.1-0.1-0.2-0.1-0.1c0.1-0.1,0.1-0.2,0.1-0.2c-0.1-0.2-0.2-0.1-0.1-0.3c-0.1-0.2,0-0.6-0.4-0.5
			c-0.3,0-0.1,0-0.1-0.2c0.5-0.5,0-1.2-0.1-1.5c0.1-0.3-0.3-0.4-0.2-0.7c-0.2-0.3-0.3,0.4-0.3,0.1c0.3-0.5-0.8-0.4-0.4-0.8
			c0.1,0.2,0.3-0.1,0.3-0.2c0.1,0,0.2,0,0.2-0.1c0-0.1-0.1-0.1-0.2-0.2c0.2-0.1-0.1-0.2,0-0.2c0.1-0.2-0.3-0.5-0.3,0
			c0-0.3-0.2-0.5-0.2-0.6c0-0.2-0.3-0.3,0-0.4c0.2-0.4-0.5-0.6-0.2-1C41.1,75.7,41.8,76.1,41.9,76.9z M39.6,59.2c0-0.1,0-0.2,0-0.3
			l0,0c0,0.1,0.1,0.1,0.1,0.2c0,0.2-0.2,0.1-0.2,0.2c0.1,0.3,0.1,0.6,0,1c0-0.1-0.1-0.1-0.2,0C39.4,59.9,39.7,59.6,39.6,59.2z
			 M39.7,69c-0.1-0.1-0.2-0.2-0.3,0c0-0.1,0-0.2-0.1-0.3c0-0.1-0.1-0.1-0.1,0c-0.3-0.4-0.1-0.6,0.1-1c0.1,0.1,0.2-0.2,0.1-0.2
			c0.1,0.1,0.1,0.4,0.2,0.5c-0.3-0.2-0.2,0.3-0.1,0.4c0.1,0,0.2-0.1,0.2,0.1C39.6,68.5,39.8,69,39.7,69z M39.1,66.6
			C39.1,66.6,39.1,66.6,39.1,66.6C39.1,66.6,39.1,66.6,39.1,66.6C39.1,66.6,39.1,66.6,39.1,66.6z M39.2,64.1
			C39.3,64.1,39.3,64.1,39.2,64.1c0,0.5,0.4-0.5,0.2,0.6C39.4,64.4,39.2,64.5,39.2,64.1z M39.2,65.2C39.2,65.2,39.2,65.2,39.2,65.2
			C39.2,65.1,39.2,65.1,39.2,65.2c0.2,0.1-0.1,0.7,0.2,0.6c0.1,0.1,0.2,0,0.1,0.3c0,0,0,0-0.1,0c-0.2,0.1-0.1-0.2-0.2-0.2
			C39.1,65.8,39.2,65.3,39.2,65.2z M38.8,68.2c-0.1-0.1,0-0.5-0.1-0.6c0,0-0.1,0-0.1,0c0-0.1,0.1-0.1,0.2-0.2c0.1,0.1,0,0.1-0.1,0.1
			C38.8,67.8,38.8,67.9,38.8,68.2z M39.1,63.9C39.1,64,39.1,64,39.1,63.9c0,0.1-0.1,0.2-0.1,0.2C39.1,64,39,63.5,39.1,63.9z
			 M39.1,75.9c0.1,0.1,0.1,0.1,0.2,0.1c-0.1,0.1-0.1,0.2-0.2,0.3C39.1,76.2,39,76.1,39.1,75.9z M39.2,77.1
			C39.2,77,39.2,77,39.2,77.1c0-0.1,0-0.1,0-0.1c-0.2-0.3,0-0.4,0.2-0.5C39.3,76.6,39.2,76.8,39.2,77.1C39.2,77,39.2,77,39.2,77.1z
			 M39.4,78.6c-0.4-0.3,0-0.9-0.2-1.3c0,0.2,0.2,0.2,0.1,0.4C39.2,77.9,39.5,78.4,39.4,78.6z M39.4,70.1
			C39.4,70.1,39.5,70.1,39.4,70.1c0.1-0.2,0-0.5,0-0.7c0.1,0.5,0.2,0.2,0.2-0.1c0.1,0.1,0.1,0.2,0,0.3c-0.1,0.3,0.1,0.4,0,0.8
			C39.7,70.3,39.6,70.2,39.4,70.1z M40.1,76.8c0,0.2,0,0.5,0,0.7c0,0-0.1-0.1-0.1-0.1c0-0.6-0.3-1.1-0.4-1.7c0.1,0,0.2-0.1,0.3-0.1
			c-0.2,0.2,0,0.3,0.1,0.5c0,0,0,0,0,0v0c-0.2,0.1,0.1,0.3,0.2,0.5C40.1,76.6,40,76.6,40.1,76.8z M40.6,79.5
			c0.1,0.2,0.1-0.1,0.1-0.1c0.1,0.1,0.2,0.1,0.1-0.1c0,0,0,0,0,0c-0.3,0.6,0.1,0.4,0.1,1c0-0.1-0.1-0.2-0.2-0.1
			c-0.1,0.1,0,0.2,0,0.3c-0.1,0-0.1,0-0.2,0c0.1-0.8-0.3-1-0.3-1.7C40.5,79.2,40.6,79.1,40.6,79.5z M60.7,8
			C60.8,7.9,60.8,7.9,60.7,8C61.2,7.4,61.1,8.1,60.7,8z M68.5,2.1c0,0.1,0,0.1,0,0.2c-0.1-0.1-0.2,0-0.3,0
			C68.3,2.2,68.4,2.2,68.5,2.1z M68.1,2.5c-0.1,0-0.3,0-0.5,0C67.8,2.4,68,2.3,68.1,2.5z M65.6,4.4c-0.1,0-0.3,0.1-0.2,0.2
			c0.1,0.1,0.1,0,0.2,0c0,0,0,0.1,0,0.1c-0.5,0.1-0.3,0.2-0.6,0.3c0,0,0-0.1,0-0.1c0,0,0,0-0.1,0c0.4-0.2,0.7-0.6,1.1-0.8
			C65.8,4.2,65.8,4.3,65.6,4.4z M66.2,3.3C66.2,3.3,66.2,3.3,66.2,3.3C66.4,3,66.8,3,67.2,2.8C66.9,3.1,66.5,2.9,66.2,3.3z
			 M68.6,2.9c0-0.1-0.1-0.1-0.2,0c-0.1,0.1-0.2,0.2-0.3,0.3c-0.2-0.1-0.6,0.2-0.8,0.3c0.6-0.3,1.1-0.6,1.6-0.9
			c0,0.1,0.1,0.1,0.1,0.1C68.8,2.6,68.8,2.7,68.6,2.9z M69,3c-0.1-0.1-0.1-0.1-0.1-0.2c0.1,0.1,0.2,0.1,0.3-0.1
			C69.3,2.9,69.2,3,69,3z M69.9,2.6c0-0.1,0-0.1,0-0.2c0.1-0.1,0.4,0,0.3-0.2c0,0,0.1,0,0.1,0C70.4,2.5,70.1,2.5,69.9,2.6z
			 M70.5,1.9c-0.2,0.1-0.4-0.3-0.1-0.3c0,0,0,0.1,0,0.1c0.2,0.3,0.6,0.3,0.9,0.3C70.9,2.2,70.6,2.2,70.5,1.9z M73.7,1
			c0,0-0.1,0-0.1,0c0-0.1-0.1-0.2-0.3-0.1c-0.1-0.1-0.2,0.1-0.4,0.1c0,0,0,0,0,0c-0.3-0.1-0.6,0.1-0.8,0.2c0.3-0.1,0.6-0.2,0.8-0.4
			c0.1,0,0.2,0.1,0.4,0c0.2,0.1,0.5,0.1,0.7,0.1C73.9,0.9,73.7,0.9,73.7,1z M74.4,1.8c-0.1,0.1-0.3,0-0.5,0c0,0-0.1,0-0.1-0.1
			c0.1,0,0.3-0.1,0.4-0.2c0,0,0,0,0,0c0,0,0,0,0,0c0,0,0,0,0,0c0,0,0,0,0,0c0,0,0,0,0,0c0,0,0,0,0,0c0,0,0,0,0,0c0,0,0,0,0,0
			c0,0,0,0,0,0c0,0,0,0,0,0c0,0,0,0,0,0c0,0,0,0,0,0c0,0,0,0,0,0c0,0,0,0,0,0c0,0,0,0,0,0c0,0,0,0,0,0c0,0,0,0,0,0c0,0,0,0,0,0
			c-0.1,0-0.2-0.1-0.3-0.1c0,0,0.1,0,0.1,0c0.1,0,0.2,0.1,0.3,0.1c-0.2,0.3,0.6,0.1,0.7,0.1c-0.5,0.1-0.2,0.2,0.1,0.3
			C75,1.9,74.7,1.7,74.4,1.8z M76.3,1.9c0.1-0.1,0-0.3-0.1-0.2c-0.1,0-0.3,0-0.2,0.2c0,0,0,0,0,0.1c0,0-0.1,0-0.1,0
			c0.1-0.2-0.4,0-0.5-0.2c0.1-0.1,0.2-0.2,0-0.3c0,0,0,0,0,0c0,0,0,0,0,0c0.1,0,0.5-0.1,0.3-0.2c0.1,0,0.2-0.1,0.2-0.2
			c0.2,0,0.4,0.1,0.5,0.1c-0.1,0.2,0.1,0.2,0.2,0.3c-0.1,0.1-0.1,0.1,0.1,0.2c0,0,0,0,0.1,0c0,0,0,0,0,0C76.6,1.8,76.4,1.9,76.3,1.9
			z M77,0.8c-0.4,0.2-0.4,0.1-0.7,0C76.4,0.7,76.9,1,77,0.7c0.1,0,0.1,0.1,0.2,0.2C77,1,77.1,0.8,77,0.8z M77.4,1.9
			c-0.1-0.1-0.2-0.1-0.2-0.1c0,0,0-0.1,0-0.1c0,0,0,0,0,0c0.1,0,0.2,0.1,0.3,0.1C77.4,1.8,77.4,1.9,77.4,1.9z M80.1,2.4
			C80.1,2.4,80.1,2.4,80.1,2.4c0,0-0.1,0-0.1,0c0,0,0,0,0,0.1c0,0,0.1,0.1,0.1,0.2c0,0,0,0,0,0c-0.2,0-0.3-0.2-0.5-0.2
			c-0.3-0.1-0.7-0.1-0.9-0.3c0,0,0,0-0.1,0c0,0,0,0,0,0.1c0,0,0,0,0,0c0,0-0.1,0-0.2,0c0,0-0.1,0-0.1-0.1c0.1,0,0.1,0,0.1,0
			c0,0,0-0.1,0-0.1c0,0,0,0,0-0.1c0.1,0,0.2,0.1,0.3,0c0,0,0-0.1,0-0.1c0,0,0,0,0,0c0.1,0,0.3,0,0.4,0.1c0.1,0.1,0.2,0.1,0.2,0
			c0,0,0,0,0,0c-0.1,0-0.2,0-0.3,0c-0.1,0-0.1,0-0.2-0.1c-0.1,0-0.1-0.1-0.2,0c-0.1,0.1-0.1,0.2,0.1,0.2c0.4,0,0.8,0.4,1.2,0.1
			C79.9,2.2,80,2.2,80.1,2.4C80.2,2.3,80.1,2.4,80.1,2.4z M80.6,2.3c0,0-0.1,0-0.1,0c-0.1,0-0.1,0-0.2,0c0.1-0.2-0.5-0.4,0-0.4
			c0,0-0.1,0-0.1,0C80,2.2,80.7,2.1,80.6,2.3z M81.6,3.2c0-0.1-0.1-0.1-0.1-0.2c0.1,0,0.2,0,0.2,0C81.7,3,81.8,3.3,81.6,3.2z
			 M81.8,2.6c-0.2-0.1-0.4-0.3-0.5-0.5C81.4,2.2,81.6,2.4,81.8,2.6C81.8,2.5,81.8,2.6,81.8,2.6z M82.2,4.2
			C82.2,4.2,82.3,4.2,82.2,4.2c0.2-0.1,0.1,0.1,0.2,0.1C82.4,4.3,82.3,4.3,82.2,4.2z M84.2,5.6c-0.1-0.1-0.2,0-0.3,0c0,0,0,0,0,0
			c0-0.1,0.1-0.2,0-0.3c-0.1,0-0.1-0.1-0.2-0.1c-0.3,0-0.4-0.3-0.6-0.5c0.4-0.1,0.1-0.3-0.1-0.4c0.1,0,0.2,0.1,0.3,0.1
			c0,0.2,0.3,0.1,0.5,0.5C83.8,5.2,84.2,5.4,84.2,5.6L84.2,5.6z M87.4,8.3c0,0,0-0.1,0-0.1c0.2,0,0.1,0.2,0.2,0.4
			C87.5,8.6,87.4,8.4,87.4,8.3z M55.9,66.3c0-0.1-0.1-0.1-0.1-0.1C56,66,56.2,66.1,55.9,66.3z M57.2,65.6c0,0-0.1,0-0.1,0.1
			c0-0.1,0.1-0.1,0-0.1c0,0,0.1-0.1,0-0.1c0,0,0.1-0.1,0.2-0.1c0,0,0,0.1,0,0.1c0,0,0,0,0,0C57.3,65.4,57.1,65.5,57.2,65.6z
			 M59.8,64c-0.1,0-0.2,0.2-0.1,0.2c-0.1,0.1-0.1,0.1-0.1,0.2c-0.3,0.2-0.5,0.2-0.8,0.1c0-0.1-0.1-0.1-0.1,0
			c0.1-0.1,0.2-0.2,0.2-0.2c0,0.3,0.6-0.2,0.3-0.3c0,0,0,0,0.1-0.1c0.1,0.1,0.3-0.2,0.5-0.2C59.8,63.9,59.9,64,59.8,64L59.8,64z
			 M61.2,63.4C61.2,63.4,61.2,63.5,61.2,63.4c-0.1,0-0.2,0-0.3,0.1c0-0.2-0.4,0.2-0.5,0.2c0,0,0,0,0-0.1c-0.1-0.1-0.2,0-0.3,0.1
			c0.2-0.2,0.7-0.4,1-0.6c0,0,0,0,0.1,0c0,0,0,0-0.1,0C61,63.2,60.8,63.5,61.2,63.4z M62.4,63.4c-0.1,0-0.2,0-0.3,0.1
			c-0.3,0.1-0.2,0-0.6,0.2c0-0.1,0.1-0.1,0-0.2c0.1,0,0.3-0.1,0.4-0.1c0.1,0,0.3-0.2,0.3-0.2c0.2,0,0.3-0.1,0.5-0.3
			C62.6,63.1,62.5,63.2,62.4,63.4z M63.6,61.7c0.2-0.1,0.4-0.2,0.6-0.1C64,61.6,63.8,61.7,63.6,61.7z M64.4,61.9
			c0.1-0.1-0.1-0.1-0.2-0.2c0,0,0.1,0,0.1,0c0,0,0.1,0.1,0.1,0.1C64.5,61.8,64.5,61.8,64.4,61.9C64.5,61.9,64.5,61.9,64.4,61.9z
			 M64.4,61.2C64.5,61.4,64.3,61.4,64.4,61.2c-0.1-0.1,0.2-0.3,0.2-0.3C64.7,61.2,64.5,61.1,64.4,61.2z M65.3,60.4
			c0.1-0.2,0.4,0,0.2,0.1C65.3,60.6,65.3,60.7,65.3,60.4z M65.5,60.7c0.1,0,0.1,0,0.2,0c0.1-0.1,0.1-0.2,0.2-0.3
			c0.2,0.1,0.3-0.2,0.4-0.3c0.2,0.1,0.4-0.2,0.6-0.3c-0.7,0.8-0.6,0.4-1.2,1C65.6,60.7,65.5,60.7,65.5,60.7z M66.1,60.9
			c0-0.1,0.2,0,0.3,0C66.2,61,66.1,61.1,66.1,60.9z M67,60.5c-0.1,0.1-0.4,0.3-0.5,0.1C66.6,60.6,67,60.5,67,60.5z M68,59.9
			c0,0-0.1,0.1-0.1,0.1c-0.2,0-0.4,0.1-0.6,0.2c0.1-0.1,0.1-0.2,0.3-0.2c0.2,0,0.5-0.5,0.7-0.4C68.2,59.7,68.1,59.8,68,59.9z
			 M68.3,58.8c0.1-0.1,0.3-0.3,0.5-0.5c0.1-0.1-0.1-0.1-0.1-0.1c0,0,0-0.1,0-0.1c0.2,0,0.4-0.1,0.3-0.1c0.1-0.2,0.2-0.3,0.4-0.4
			c-0.3,0.3,0,0.3,0.2,0.1c0,0,0,0.1,0.1,0.1C68.8,58.2,68.9,58.4,68.3,58.8z M74.8,51.9c0,0,0.1-0.1,0.2-0.1
			C74.8,52.3,74.4,52.1,74.8,51.9z M77.5,50.8c0-0.1,0.2-0.2,0.3-0.3C77.8,50.6,77.8,50.6,77.5,50.8z M79.8,46.2
			c0,0.1-0.1,0.1-0.1,0.2c0,0.1-0.2,0.2-0.2,0.1C79.7,46.5,79.7,46.3,79.8,46.2z M79.7,48.5c-0.1,0-0.1,0.3-0.2,0.3
			c0.1-0.3,0.3-0.6,0.6-0.3C79.8,48.5,79.8,48.7,79.7,48.5z M80.1,47.9c0,0,0-0.1,0-0.1C80.1,47.8,80.1,47.8,80.1,47.9
			c0.2-0.1,0.3-0.3,0.4-0.3C80.5,47.8,80.3,47.8,80.1,47.9z M80.6,47c0-0.1,0-0.1,0-0.2C80.8,46.1,80.9,46.7,80.6,47z M82.3,46.1
			c-0.2,0.2-0.1-0.2-0.1-0.2C82.2,45.9,82.2,46,82.3,46.1C82.3,46,82.3,46,82.3,46.1z M82.5,40.8C82.5,40.8,82.5,40.8,82.5,40.8
			C82.5,41.7,82,41.4,82.5,40.8z M82.7,45.6c-0.1,0-0.1-0.1-0.2-0.1C82.7,45.1,83.1,45.3,82.7,45.6z M82.8,42
			c-0.2-0.2,0.2-0.3,0.3-0.4c0,0,0,0.1,0.1,0.1c0.1-0.1,0.1-0.4,0.3-0.4C83.3,41.6,83.1,41.9,82.8,42z M83.5,43.4
			c-0.1,0-0.1,0,0-0.1c0.2-0.1,0.1,0.3,0.3,0.1C83.7,43.7,83.7,43.5,83.5,43.4z M84.2,43.5c-0.1,0-0.1,0.3,0,0.3c0,0,0,0,0,0
			c0,0,0,0,0,0c-0.4,0.1-0.1-0.5,0.2-0.4C84.4,43.5,84.3,43.5,84.2,43.5z M84.4,42.4c0-0.2,0.1-0.3,0.3-0.5
			C84.9,42.1,84.5,42.3,84.4,42.4z M86,31.6c0.1,0,0,0.2,0,0.3c0,0.1-0.1,0.5-0.2,0.2C86,32,85.9,31.7,86,31.6z M86,36.4
			c-0.1,0,0,0.1,0,0.1c-0.2-0.4,0.2-0.6,0.3-0.2C86.2,36.4,86.1,36.2,86,36.4z M87.4,31.8C87.4,31.8,87.4,31.8,87.4,31.8
			c0-0.1-0.2-0.3-0.1-0.4C87.4,31.5,87.5,31.6,87.4,31.8z M88.2,35.3c-0.4,0.2-0.1-0.2,0.1-0.3C88.5,35.2,88.3,35.2,88.2,35.3z
			 M88.4,31.3c0-0.1,0-0.1,0.1-0.2c0,0,0.1,0.1,0.1,0.1L88.4,31.3z M89.2,30C89.2,30,89.2,30,89.2,30C88.9,30.2,88.8,29.9,89.2,30z
			 M89.3,35.2c-0.5-0.1,0-0.5,0.2-0.6C89.4,34.8,89.4,34.9,89.3,35.2z M90.1,29.1C90,29,89.8,28.8,90,28.7
			C89.9,28.8,90.1,28.9,90.1,29.1z M90.5,25.3c0-0.1-0.1-0.2,0-0.3c0,0,0,0,0,0C90.6,25.1,90.6,25.2,90.5,25.3z M90.5,24.3
			c-0.1,0.7-0.3,0.3,0-0.1C90.5,24.3,90.5,24.3,90.5,24.3z M90.6,21c-0.1-0.2,0-0.3,0.1-0.4C90.8,20.8,90.7,20.9,90.6,21z"/>
		<g>
			<path class="st0" d="M81.4,49.4c0.1-0.1,0.1-0.3,0.3-0.3c0.3-0.2,0.1,0,0.1,0.1c-0.1-0.1-0.1,0-0.2,0.1
				C81.6,49.5,81.5,49.6,81.4,49.4C81.4,49.5,81.4,49.4,81.4,49.4z"/>
			<path class="st0" d="M81.5,49.7c-0.1,0-0.1,0-0.2-0.1c-0.1,0-0.1-0.1-0.1-0.2c0,0,0-0.1,0-0.1c0,0,0,0,0-0.1
				c0.1-0.1,0.2-0.3,0.4-0.3c0.1-0.1,0.2-0.1,0.3-0.1C82,49,82,49.1,82,49.2c0,0,0,0,0,0c0,0.1,0,0.1-0.1,0.1c0,0-0.1,0-0.1,0
				c0,0,0,0,0,0C81.7,49.5,81.7,49.6,81.5,49.7C81.5,49.7,81.5,49.7,81.5,49.7z M82,49.2L82,49.2L82,49.2z"/>
		</g>
		<path class="st0" d="M16.1,8.3c0-0.1,0-0.1,0-0.2c0,0-0.1-0.1-0.1-0.1c0,0-0.1,0-0.1,0c-0.3,0.2-0.5,0.2-0.7,0.1
			c-0.2-0.1-0.4-0.2-0.6,0c0,0,0,0-0.1,0c-0.1,0.1-0.2,0.1-0.3,0.1c0,0-0.1,0-0.1,0l-0.1,0.2c-0.4-0.1-0.6,0.2-0.8,0.4
			c-0.1,0.1-0.2,0.2-0.4,0.3c0,0,0,0.1,0,0.1l0,0c-0.4-0.1-0.7,0.2-0.8,0.6c0,0,0,0,0,0c0,0,0,0.1,0,0.1c0,0,0,0,0.1,0h0
			c0.1,0,0.2,0.1,0.3,0.1c0.2-0.1,0.6-0.3,0.5-0.6c0.1,0,0.3,0.1,0.3,0c0,0,0-0.1,0-0.1c0.1,0,0.3,0,0.4-0.1c0,0,0,0,0,0
			c0.1,0,0.1,0,0.3-0.3c0,0,0,0,0,0c0,0.2,0.2,0.2,0.3,0c0.3-0.1,0.5-0.3,0.8-0.4c0,0,0,0,0,0c0,0.1,0.1,0.1,0.2,0.2
			c0.2,0.1,0.2,0,0.1-0.2C15.6,8.5,15.8,8.4,16.1,8.3C16,8.4,16,8.4,16.1,8.3C16.1,8.4,16.1,8.4,16.1,8.3z"/>
		<path class="st0" d="M1.3,25.4c0.1-0.4-0.6-0.5-0.5,0c0.1,0.3-0.2,0.2-0.1,0.4c0.1,0.3,0.2,0.2,0.3-0.1
			C1.2,25.7,1.4,25.6,1.3,25.4z"/>
		<path class="st0" d="M34.7,70.8c-0.2-0.1-0.3-0.2-0.3-0.3c0,0-0.1-0.1-0.1,0c0,0,0,0-0.1,0c-0.1,0-0.1,0.1-0.1,0.1
			c0.3,0.2,0.5,0.4,0.7,0.6c0,0,0.1,0,0.1,0c0.1,0,0.2,0,0.1-0.1C35,71,34.9,70.9,34.7,70.8z"/>
		<path class="st0" d="M4.7,48.5c-0.2-0.1-0.4-0.4-0.6-0.4C3.8,48.5,4.9,49.3,4.7,48.5z"/>
		<path class="st0" d="M0.6,36.5c-0.8-0.2-0.3,0.2-0.5,0.6C0.3,37.4,0.8,36.8,0.6,36.5z"/>
		<path class="st0" d="M9.8,55.1c-0.4-0.5-0.9-0.3-0.3,0.2C9.6,55.4,10,55.3,9.8,55.1z"/>
		<path class="st0" d="M20.9,63.1c-0.3-0.6-1.3-0.2-0.5,0c0.3,0,0.2,0.1,0.3,0.2C20.8,63.3,21,63.3,20.9,63.1z"/>
		<path class="st0" d="M1.9,22.5c-0.2-0.1-0.2-0.3-0.2-0.5c-0.4,0.2-0.2,0.6,0.1,0.7c-0.2,0.1-0.3,0.3,0,0.3
			C1.9,22.9,2.2,22.6,1.9,22.5z"/>
		<path class="st0" d="M6.7,15c-0.2,0-0.8-0.2-0.6,0.2c-0.8,0-0.1,0.9,0,0.7c0-0.2,0-0.4,0.2-0.4c0.1,0,0-0.2-0.1-0.2
			c0.2-0.1,0.2-0.1,0.2,0.1C6.6,15.6,7,15.1,6.7,15z"/>
		<path class="st0" d="M6.3,50c-0.2,0.1-0.4,0.4-0.1,0.6C6.3,50.5,6.8,49.8,6.3,50z"/>
		<path class="st0" d="M3.2,46c-0.5-1.1-0.3,0.6,0.2,0.8C3.5,46.6,3.2,46.3,3.2,46z"/>
		<path class="st0" d="M80.2,50.8c-0.4-0.2-0.6,0.4-0.7,0.6c-0.1,0-0.2,0.1-0.1,0.2c-0.3,0.1-0.3,0.1-0.5,0.5
			c-0.3,0.4-0.2,0-0.8,0.6c0,0-0.1-0.1-0.3,0c-0.1,0.2-0.2,0.5-0.4,0.5c-0.2,0.1,0.1,0.4,0.2,0.2c0.3-0.5,0.7-0.1,0.9-0.4
			c0.7-0.5,0-0.1,1.1-1.3C79.9,51.6,80.5,51.2,80.2,50.8z"/>
		<path class="st0" d="M90,8.9c-0.1-0.1-0.6,0.4-0.5,0.5C89.7,9.6,90.2,9.2,90,8.9z"/>
		<path class="st0" d="M71.8,58.4c-0.2-0.1-0.6,0.2-0.6,0.4c-0.1,0-0.3,0-0.2,0.1c-0.1,0-0.2,0-0.2,0.1c-0.1,0-0.1,0-0.2,0.2
			c-0.1-0.2-0.6,0.5-0.7,0.5c0-0.2-0.3-0.1-0.2,0c-0.2,0.1-0.4,0.2-0.4,0.3c0,0.1,0.1,0.2,0.2,0.1c0-0.1,0.8-0.1,0.9-0.3
			c0.2-0.1,0.3-0.4,0.5-0.4c0,0,0.4-0.1,0.5-0.4C71.3,58.8,72.1,58.5,71.8,58.4z"/>
		<path class="st0" d="M63.7,60.8c-0.3-0.1-0.5,0.4-0.8,0.5C62.8,61.6,64,61,63.7,60.8z"/>
		<path class="st0" d="M76.4,54.5C76.4,54.5,76.3,54.5,76.4,54.5c-0.2-0.1-0.2,0.3-0.4,0.3C74.9,55.2,77,55.3,76.4,54.5z"/>
		<path class="st0" d="M90.9,35c-0.4,0-0.4,0.5-0.2,0.7C90.9,35.6,90.9,35.2,90.9,35z"/>
		<path class="st0" d="M86.9,42.9c-0.8-0.4-0.5,1-0.1,0.2C86.8,43.1,87,43,86.9,42.9z"/>
		<path class="st0" d="M80.6,4.3C80.6,4.3,80.6,4.3,80.6,4.3c-0.1,0-0.2-0.1-0.3-0.1c0,0,0,0,0,0c-0.1,0-0.1,0-0.1,0.1c0,0,0,0,0,0
			c0,0,0,0,0,0c0,0,0,0,0,0c0.1,0.1,0.4,0.3,0.5,0.1c0.1,0.2,0.6,0.7,0.6,0.2c0,0,0,0,0,0C81.4,4.3,80.1,3.8,80.6,4.3z M80.3,4.2
			C80.3,4.2,80.3,4.2,80.3,4.2C80.3,4.2,80.3,4.2,80.3,4.2L80.3,4.2z M80.2,4.3C80.2,4.3,80.2,4.3,80.2,4.3
			C80.2,4.3,80.2,4.3,80.2,4.3C80.2,4.3,80.2,4.3,80.2,4.3z"/>
		<path class="st0" d="M72.3,3.1C72,3,71.2,3.4,71.8,3.5C72,3.5,72.8,3.3,72.3,3.1z"/>
		<path class="st0" d="M56.8,10.9c0-0.1-0.3,0.3-0.5,0.5c-0.3,0.3-0.9,1.1-1,1.6c0.1,0.1,0.3-0.1,0.3-0.3c0,0,0,0,0,0
			c0.2-0.4,0.8-0.8,0.8-1.2C56.6,11.3,56.8,11.1,56.8,10.9z"/>
		<path class="st0" d="M40.1,82.5c0-0.2,0-0.5-0.3-0.5c0.1-0.1,0.1-0.3-0.1-0.2c0-0.1,0.1-0.2,0-0.3c0,0,0-0.1-0.1-0.3
			c0.1,0,0.2-0.1,0.1-0.2c0,0-0.1-0.6-0.1-0.6c0.1,0,0.3-0.3,0-0.3c0-0.1-0.1-0.3,0-0.4c0,0,0-0.1-0.1-0.1c-0.1,0-0.2,0-0.2,0.2
			c0.2,0.4-0.4,0.6-0.2,0.9c0.1,0.2-0.1,0.3,0.1,0.3c-0.2,0.4,0.2,0.6,0.2,0.9c0,0,0,0.1,0.1,0.1c-0.1,0.2,0,0.5,0.3,0.7
			C39.9,82.8,40.1,82.5,40.1,82.5z"/>
		<path class="st0" d="M50.2,88.8c0-0.3-0.2-0.2-0.3,0c-0.2,0.1-0.4,0.7-0.1,0.8c0.4,0.1,0.2-0.6,0.4-0.7
			C50.2,88.9,50.2,88.8,50.2,88.8z"/>
		<path class="st0" d="M42.1,88.2c-0.3-0.2,0-0.2-0.3-0.3C42,88,42,87.8,42,87.6c-0.2-0.3-0.4,0.3-0.4,0.4c0.2,0,0,0.2,0.2,0.4
			C41.9,88.6,42.4,88.4,42.1,88.2z"/>
		<path class="st0" d="M48.8,80.1c0.2-0.5-0.5,0.1-0.2,0.4c0,0.1,0.3-0.1,0.4-0.1C49,80.4,48.8,80.2,48.8,80.1z"/>
		<path class="st0" d="M6.3,50.3C6.3,50.3,6.3,50.3,6.3,50.3L6.3,50.3z"/>
		<path class="st0" d="M6.4,50.3C6.4,50.3,6.4,50.2,6.4,50.3C6.4,50.2,6.4,50.2,6.4,50.3C6.4,50.2,6.4,50.2,6.4,50.3
			C6.4,50.2,6.4,50.2,6.4,50.3c-0.1,0-0.1,0-0.1,0c0,0,0,0,0,0c0,0,0,0,0,0c0,0,0,0,0,0c0,0,0,0,0,0c0,0,0,0,0,0c0,0,0,0,0,0
			c0,0,0,0,0,0h0C6.3,50.3,6.3,50.3,6.4,50.3C6.3,50.4,6.3,50.4,6.4,50.3C6.3,50.4,6.3,50.4,6.4,50.3C6.4,50.3,6.4,50.3,6.4,50.3
			C6.4,50.3,6.4,50.3,6.4,50.3C6.4,50.3,6.4,50.3,6.4,50.3C6.4,50.3,6.4,50.3,6.4,50.3C6.4,50.3,6.4,50.3,6.4,50.3
			C6.4,50.3,6.4,50.3,6.4,50.3C6.4,50.3,6.4,50.3,6.4,50.3C6.4,50.3,6.4,50.3,6.4,50.3L6.4,50.3C6.4,50.3,6.4,50.3,6.4,50.3z"/>
		<path class="st0" d="M6.3,50.3C6.3,50.3,6.3,50.3,6.3,50.3L6.3,50.3z"/>
		<path class="st0" d="M6.3,50.4c-0.1,0-0.1-0.1-0.1-0.1h0C6.3,50.2,6.5,50.3,6.3,50.4C6.4,50.3,6.3,50.4,6.3,50.4z"/>
		<path class="st0" d="M6.3,50.3L6.3,50.3C6.3,50.3,6.3,50.3,6.3,50.3z"/>
		<path class="st0" d="M6.4,50.2L6.4,50.2C6.3,50.2,6.3,50.2,6.4,50.2C6.3,50.2,6.3,50.2,6.4,50.2C6.3,50.2,6.3,50.2,6.4,50.2
			C6.3,50.3,6.3,50.3,6.4,50.2C6.3,50.3,6.3,50.3,6.4,50.2C6.3,50.3,6.3,50.3,6.4,50.2C6.3,50.3,6.3,50.3,6.4,50.2
			C6.3,50.3,6.3,50.3,6.4,50.2C6.3,50.3,6.3,50.3,6.4,50.2C6.3,50.3,6.3,50.3,6.4,50.2C6.3,50.3,6.3,50.3,6.4,50.2
			c-0.1,0.1-0.1,0.1-0.1,0.1c0,0,0,0,0,0h0c0,0,0,0,0,0c0,0,0,0,0,0c0,0,0,0,0,0c0,0,0,0,0,0c0,0,0,0,0,0c0,0,0,0,0,0c0,0,0,0,0,0
			c0,0,0,0,0,0C6.4,50.3,6.4,50.3,6.4,50.2C6.4,50.3,6.4,50.3,6.4,50.2C6.4,50.3,6.4,50.3,6.4,50.2C6.4,50.3,6.4,50.3,6.4,50.2
			C6.4,50.3,6.4,50.2,6.4,50.2z"/>
		<path class="st0" d="M63.5,4.8C63.5,4.8,63.5,4.8,63.5,4.8C63.5,4.8,63.5,4.8,63.5,4.8z"/>
		<path class="st0" d="M63.5,4.8C63.5,4.8,63.5,4.8,63.5,4.8C63.5,4.8,63.5,4.8,63.5,4.8C63.5,4.8,63.5,4.8,63.5,4.8
			c-0.1,0.1-0.1,0.1,0,0.1c0,0,0,0,0,0c0,0,0,0,0,0C63.6,4.9,63.6,4.9,63.5,4.8C63.6,4.8,63.6,4.7,63.5,4.8z"/>
		<path class="st0" d="M63.5,4.8C63.5,4.8,63.5,4.8,63.5,4.8C63.5,4.8,63.5,4.8,63.5,4.8z"/>
		<path class="st0" d="M63.5,4.9C63.5,4.9,63.5,4.9,63.5,4.9L63.5,4.9C63.4,4.8,63.6,4.7,63.5,4.9C63.6,4.8,63.6,4.9,63.5,4.9z"/>
		<path class="st0" d="M39.9,82.6L39.9,82.6C39.9,82.6,39.9,82.6,39.9,82.6z"/>
		<path class="st0" d="M39.9,82.6C39.9,82.6,39.9,82.6,39.9,82.6C39.9,82.6,39.9,82.6,39.9,82.6C39.9,82.6,39.9,82.6,39.9,82.6
			C39.9,82.6,39.9,82.6,39.9,82.6c0,0-0.1,0-0.1,0c0,0,0,0,0,0c0,0,0,0,0,0c0,0,0,0,0,0c0,0,0,0,0,0c0,0,0,0,0,0c0,0,0,0,0,0
			C39.8,82.7,39.8,82.7,39.9,82.6c-0.1,0.1-0.1,0.1-0.1,0.1c0,0,0,0,0,0c0,0,0,0,0,0C39.9,82.7,39.9,82.7,39.9,82.6
			C39.9,82.7,39.9,82.7,39.9,82.6C40,82.7,40,82.6,39.9,82.6z"/>
		<path class="st0" d="M39.9,82.6C39.9,82.6,39.9,82.6,39.9,82.6C39.9,82.6,39.9,82.6,39.9,82.6z"/>
		<path class="st0" d="M39.9,82.7c-0.1,0-0.1-0.1,0-0.1C40,82.6,40,82.7,39.9,82.7C39.9,82.7,39.9,82.7,39.9,82.7z"/>
		<path class="st0" d="M85.6,43L85.6,43C85.6,43,85.6,43,85.6,43z"/>
		<path class="st0" d="M85.6,42.9c-0.1,0-0.1,0.1,0,0.1C85.7,43.1,85.7,42.9,85.6,42.9z M85.6,43L85.6,43
			C85.6,42.9,85.6,42.9,85.6,43L85.6,43z"/>
		<path class="st0" d="M79.1,2.4C79.1,2.4,79.1,2.4,79.1,2.4C79.1,2.4,79.1,2.4,79.1,2.4z"/>
		<path class="st0" d="M79.1,2.4c-0.1,0-0.1,0.1,0,0.1C79.2,2.5,79.2,2.4,79.1,2.4z M79.1,2.4C79.1,2.4,79.1,2.4,79.1,2.4L79.1,2.4
			L79.1,2.4z M79.1,2.5L79.1,2.5L79.1,2.5C79.1,2.5,79.1,2.5,79.1,2.5z"/>
		<path class="st0" d="M80.3,4.3C80.3,4.3,80.3,4.3,80.3,4.3C80.3,4.3,80.3,4.3,80.3,4.3z"/>
		<path class="st0" d="M80.3,4.2C80.3,4.2,80.3,4.2,80.3,4.2c-0.1,0-0.1,0.1-0.1,0.1c0,0,0,0,0,0C80.4,4.3,80.4,4.2,80.3,4.2z
			 M80.3,4.3C80.3,4.3,80.3,4.3,80.3,4.3C80.3,4.3,80.2,4.3,80.3,4.3C80.2,4.3,80.2,4.3,80.3,4.3C80.2,4.3,80.2,4.3,80.3,4.3
			L80.3,4.3L80.3,4.3L80.3,4.3z M80.3,4.3L80.3,4.3L80.3,4.3C80.3,4.2,80.3,4.2,80.3,4.3C80.3,4.2,80.3,4.2,80.3,4.3L80.3,4.3
			C80.3,4.2,80.3,4.2,80.3,4.3C80.3,4.2,80.3,4.2,80.3,4.3C80.3,4.2,80.4,4.2,80.3,4.3L80.3,4.3z"/>
		<path class="st0" d="M79.1,2.4C79.1,2.4,79.1,2.4,79.1,2.4C79.1,2.4,79.1,2.4,79.1,2.4z"/>
		<path class="st0" d="M79.1,2.4c-0.1,0-0.1,0.1,0,0.1C79.2,2.5,79.2,2.4,79.1,2.4z M79.1,2.4C79.1,2.4,79.1,2.4,79.1,2.4L79.1,2.4
			L79.1,2.4z M79.1,2.5L79.1,2.5L79.1,2.5C79.1,2.5,79.1,2.5,79.1,2.5z"/>
		<path class="st0" d="M85.6,43C85.6,43,85.6,43,85.6,43C85.6,43,85.6,43,85.6,43z"/>
		<path class="st0" d="M85.6,42.9c-0.1,0-0.1,0.1,0,0.1C85.7,43.1,85.7,42.9,85.6,42.9z M85.6,43L85.6,43
			C85.6,42.9,85.6,42.9,85.6,43L85.6,43z"/>
		<path class="st0" d="M52,67.8c0,0-0.1,0-0.1,0.1C51.9,67.9,52,67.8,52,67.8z"/>
	</g>
</g>
</svg>
